<svg width="1439" height="394" viewBox="0 0 1439 394" fill="none" xmlns="http://www.w3.org/2000/svg">
<rect width="1439" height="822.285" transform="translate(0 -214.143)" fill="#001155"/>
<rect width="205.571" height="205.571" transform="matrix(-1 0 0 1 205.571 -8.57153)" fill="#123ADE"/>
<path d="M205.571 94.214C205.571 150.981 159.553 197 102.786 197L102.786 -8.57173C159.553 -8.57173 205.571 37.447 205.571 94.214Z" fill="#032095"/>
<path d="M0 94.214C0 150.981 46.0187 197 102.786 197L102.786 -8.57173C46.0187 -8.57173 0 37.447 0 94.214Z" fill="#0A30CB"/>
<rect width="205.571" height="205.571" transform="matrix(0 -1 -1 0 411.143 197)" fill="#123ADE"/>
<path d="M205.571 197V171.303L231.268 197H205.571Z" fill="#001155"/>
<path d="M231.268 197V171.303L256.964 197H231.268Z" fill="#001155"/>
<path d="M256.964 197V171.303L282.661 197H256.964Z" fill="#001155"/>
<path d="M282.66 197V171.303L308.357 197H282.66Z" fill="#001155"/>
<path d="M308.357 197V171.303L334.053 197H308.357Z" fill="#001155"/>
<path d="M334.053 197V171.303L359.75 197H334.053Z" fill="#001155"/>
<path d="M359.75 197V171.303L385.446 197H359.75Z" fill="#001155"/>
<path d="M385.446 197V171.303L411.143 197H385.446Z" fill="#001155"/>
<path d="M205.571 171.303V145.607L231.268 171.303H205.571Z" fill="#001155"/>
<path d="M231.268 171.303V145.607L256.964 171.303H231.268Z" fill="#001155"/>
<path d="M256.964 171.303V145.607L282.661 171.303H256.964Z" fill="#001155"/>
<path d="M282.66 171.303V145.607L308.357 171.303H282.66Z" fill="#001155"/>
<path d="M308.357 171.303V145.607L334.053 171.303H308.357Z" fill="#001155"/>
<path d="M334.053 171.303V145.607L359.75 171.303H334.053Z" fill="#001155"/>
<path d="M359.75 171.303V145.607L385.446 171.303H359.75Z" fill="#001155"/>
<path d="M205.571 145.607V119.91L231.268 145.607H205.571Z" fill="#001155"/>
<path d="M231.268 145.607V119.91L256.964 145.607H231.268Z" fill="#001155"/>
<path d="M256.964 145.607V119.91L282.661 145.607H256.964Z" fill="#001155"/>
<path d="M282.66 145.607V119.91L308.357 145.607H282.66Z" fill="#001155"/>
<path d="M308.357 145.607V119.91L334.053 145.607H308.357Z" fill="#001155"/>
<path d="M334.053 145.607V119.91L359.75 145.607H334.053Z" fill="#001155"/>
<path d="M205.571 119.911V94.2141L231.268 119.911H205.571Z" fill="#001155"/>
<path d="M231.268 119.911V94.2141L256.964 119.911H231.268Z" fill="#001155"/>
<path d="M256.964 119.911V94.2141L282.661 119.911H256.964Z" fill="#001155"/>
<path d="M282.66 119.911V94.2141L308.357 119.911H282.66Z" fill="#001155"/>
<path d="M308.357 119.911V94.2141L334.053 119.911H308.357Z" fill="#001155"/>
<path d="M205.571 94.2141V68.5177L231.268 94.2141H205.571Z" fill="#001155"/>
<path d="M231.268 94.2141V68.5177L256.964 94.2141H231.268Z" fill="#001155"/>
<path d="M256.964 94.2141V68.5177L282.661 94.2141H256.964Z" fill="#001155"/>
<path d="M282.66 94.2141V68.5177L308.357 94.2141H282.66Z" fill="#001155"/>
<path d="M205.571 68.5177V42.8213L231.268 68.5177H205.571Z" fill="#001155"/>
<path d="M231.268 68.5177V42.8213L256.964 68.5177H231.268Z" fill="#001155"/>
<path d="M256.964 68.5177V42.8213L282.661 68.5177H256.964Z" fill="#001155"/>
<path d="M205.571 42.8213V17.1249L231.268 42.8213H205.571Z" fill="#001155"/>
<path d="M231.268 42.8213V17.1249L256.964 42.8213H231.268Z" fill="#001155"/>
<path d="M205.571 17.1249V-8.57156L231.268 17.1249H205.571Z" fill="#001155"/>
<rect x="411.143" y="197" width="205.571" height="205.571" transform="rotate(-90 411.143 197)" fill="#123ADE"/>
<rect x="616.715" y="197" width="205.571" height="205.571" transform="rotate(-90 616.715 197)" fill="#123ADE"/>
<path d="M822.286 197V171.303L796.59 197H822.286Z" fill="#001155"/>
<path d="M796.59 197V171.303L770.893 197H796.59Z" fill="#001155"/>
<path d="M770.893 197V171.303L745.197 197H770.893Z" fill="#001155"/>
<path d="M745.197 197V171.303L719.5 197H745.197Z" fill="#001155"/>
<path d="M719.5 197V171.303L693.804 197H719.5Z" fill="#001155"/>
<path d="M693.804 197V171.303L668.107 197H693.804Z" fill="#001155"/>
<path d="M668.108 197V171.303L642.411 197H668.108Z" fill="#001155"/>
<path d="M642.411 197V171.303L616.715 197H642.411Z" fill="#001155"/>
<path d="M822.286 171.303V145.607L796.59 171.303H822.286Z" fill="#001155"/>
<path d="M796.59 171.303V145.607L770.893 171.303H796.59Z" fill="#001155"/>
<path d="M770.893 171.303V145.607L745.197 171.303H770.893Z" fill="#001155"/>
<path d="M745.197 171.303V145.607L719.5 171.303H745.197Z" fill="#001155"/>
<path d="M719.5 171.303V145.607L693.804 171.303H719.5Z" fill="#001155"/>
<path d="M693.804 171.303V145.607L668.107 171.303H693.804Z" fill="#001155"/>
<path d="M668.108 171.303V145.607L642.411 171.303H668.108Z" fill="#001155"/>
<path d="M822.286 145.607V119.91L796.59 145.607H822.286Z" fill="#001155"/>
<path d="M796.59 145.607V119.91L770.893 145.607H796.59Z" fill="#001155"/>
<path d="M770.893 145.607V119.91L745.197 145.607H770.893Z" fill="#001155"/>
<path d="M745.197 145.607V119.91L719.5 145.607H745.197Z" fill="#001155"/>
<path d="M719.5 145.607V119.91L693.804 145.607H719.5Z" fill="#001155"/>
<path d="M693.804 145.607V119.91L668.107 145.607H693.804Z" fill="#001155"/>
<path d="M822.286 119.911V94.2141L796.59 119.911H822.286Z" fill="#001155"/>
<path d="M796.59 119.911V94.2141L770.893 119.911H796.59Z" fill="#001155"/>
<path d="M770.893 119.911V94.2141L745.197 119.911H770.893Z" fill="#001155"/>
<path d="M745.197 119.911V94.2141L719.5 119.911H745.197Z" fill="#001155"/>
<path d="M719.5 119.911V94.2141L693.804 119.911H719.5Z" fill="#001155"/>
<path d="M822.286 94.2141V68.5177L796.59 94.2141H822.286Z" fill="#001155"/>
<path d="M796.59 94.2141V68.5177L770.893 94.2141H796.59Z" fill="#001155"/>
<path d="M770.893 94.2141V68.5177L745.197 94.2141H770.893Z" fill="#001155"/>
<path d="M745.197 94.2141V68.5177L719.5 94.2141H745.197Z" fill="#001155"/>
<path d="M822.286 68.5177V42.8213L796.59 68.5177H822.286Z" fill="#001155"/>
<path d="M796.59 68.5177V42.8213L770.893 68.5177H796.59Z" fill="#001155"/>
<path d="M770.893 68.5177V42.8213L745.197 68.5177H770.893Z" fill="#001155"/>
<path d="M822.286 42.8213V17.1249L796.59 42.8213H822.286Z" fill="#001155"/>
<path d="M796.59 42.8213V17.1249L770.893 42.8213H796.59Z" fill="#001155"/>
<path d="M822.286 17.1249V-8.57156L796.59 17.1249H822.286Z" fill="#001155"/>
<rect x="822.286" y="197" width="205.571" height="205.571" transform="rotate(-90 822.286 197)" fill="#0A30CB"/>
<rect x="1027.86" y="197" width="205.571" height="205.571" transform="rotate(-90 1027.86 197)" fill="#123ADE"/>
<rect x="1027.86" y="197" width="102.786" height="205.571" transform="rotate(-90 1027.86 197)" fill="#001155"/>
<path d="M1233.43 94.2141C1176.66 94.2141 1130.64 48.1954 1130.64 -8.57163H1233.43V94.2141Z" fill="#032095"/>
<rect x="1439" y="-8.57153" width="205.571" height="205.571" transform="rotate(90 1439 -8.57153)" fill="#123ADE"/>
<path d="M1439 197C1439 170.004 1433.68 143.272 1423.35 118.331C1413.02 93.3901 1397.88 70.728 1378.79 51.639C1359.7 32.5499 1337.04 17.4076 1312.1 7.07666C1287.16 -3.25427 1260.43 -8.57153 1233.43 -8.57153L1233.43 197H1439Z" fill="#0A30CB"/>
<path d="M1336.21 197C1336.21 183.502 1333.56 170.136 1328.39 157.665C1323.23 145.195 1315.65 133.864 1306.11 124.319C1296.57 114.775 1285.23 107.204 1272.76 102.038C1260.29 96.8727 1246.93 94.2141 1233.43 94.2141L1233.43 197H1336.21Z" fill="#032095"/>
<rect x="0.000488281" y="402.571" width="205.571" height="205.571" transform="rotate(-90 0.000488281 402.571)" fill="#123ADE"/>
<path d="M0.000389099 299.786C56.7674 299.786 102.786 253.767 102.786 197H0.000389099V299.786Z" fill="#0A30CB"/>
<path d="M205.572 299.786C148.805 299.786 102.786 253.767 102.786 197H205.572V299.786Z" fill="#032095"/>
<path d="M0.000389099 299.786C56.7674 299.786 102.786 345.805 102.786 402.572H0.000389099V299.786Z" fill="#0A30CB"/>
<path d="M205.572 299.786C148.805 299.786 102.786 345.805 102.786 402.572H205.572V299.786Z" fill="#032095"/>
<rect width="205.571" height="205.571" transform="matrix(0 -1 -1 0 411.143 402.571)" fill="#123ADE"/>
<path d="M411.143 197C411.143 223.996 405.826 250.728 395.495 275.669C385.164 300.61 370.022 323.272 350.933 342.361C331.844 361.45 309.182 376.592 284.241 386.923C259.299 397.254 232.568 402.571 205.572 402.571L205.572 197H411.143Z" fill="#001155"/>
<path d="M308.358 197C308.358 210.498 305.699 223.864 300.533 236.334C295.368 248.805 287.797 260.136 278.252 269.681C268.708 279.225 257.377 286.796 244.906 291.962C232.436 297.127 219.07 299.786 205.572 299.786L205.572 197H308.358Z" fill="#032095"/>
<rect x="411.144" y="402.571" width="205.571" height="205.571" transform="rotate(-90 411.144 402.571)" fill="#123ADE"/>
<path d="M411.143 197C411.143 223.996 416.461 250.728 426.792 275.669C437.122 300.61 452.265 323.272 471.354 342.361C490.443 361.45 513.105 376.592 538.046 386.923C562.987 397.254 589.719 402.571 616.715 402.571L616.715 197H411.143Z" fill="#0A30CB"/>
<rect width="205.571" height="205.571" transform="matrix(0 -1 -1 0 822.286 402.571)" fill="#001155"/>
<path d="M616.715 402.571V197L822.286 402.571H616.715Z" fill="#001155"/>
<rect width="205.571" height="205.571" transform="matrix(0 1 1 0 822.286 197)" fill="#123ADE"/>
<path d="M925.072 299.786C981.839 299.786 1027.86 345.804 1027.86 402.571H822.286C822.286 345.804 868.305 299.786 925.072 299.786Z" fill="#032095"/>
<path d="M925.072 299.786C981.839 299.786 1027.86 253.767 1027.86 197L822.286 197C822.286 253.767 868.305 299.786 925.072 299.786Z" fill="#0A30CB"/>
<rect x="1027.86" y="402.571" width="205.571" height="205.571" transform="rotate(-90 1027.86 402.571)" fill="#123ADE"/>
<path d="M1130.64 299.786C1187.41 299.786 1233.43 253.767 1233.43 197H1027.86C1027.86 253.767 1073.88 299.786 1130.64 299.786Z" fill="#032095"/>
<rect width="205.571" height="205.571" transform="matrix(0 -1 -1 0 1439 402.571)" fill="#123ADE"/>
<path d="M1233.43 402.571V376.875L1259.13 402.571H1233.43Z" fill="#001155"/>
<path d="M1259.13 402.571V376.875L1284.82 402.571H1259.13Z" fill="#001155"/>
<path d="M1284.82 402.571V376.875L1310.52 402.571H1284.82Z" fill="#001155"/>
<path d="M1310.52 402.571V376.875L1336.21 402.571H1310.52Z" fill="#001155"/>
<path d="M1336.22 402.571V376.875L1361.91 402.571H1336.22Z" fill="#001155"/>
<path d="M1361.91 402.571V376.875L1387.61 402.571H1361.91Z" fill="#001155"/>
<path d="M1387.61 402.571V376.875L1413.3 402.571H1387.61Z" fill="#001155"/>
<path d="M1413.3 402.571V376.875L1439 402.571H1413.3Z" fill="#001155"/>
<path d="M1233.43 376.875V351.179L1259.13 376.875H1233.43Z" fill="#001155"/>
<path d="M1259.13 376.875V351.179L1284.82 376.875H1259.13Z" fill="#001155"/>
<path d="M1284.82 376.875V351.179L1310.52 376.875H1284.82Z" fill="#001155"/>
<path d="M1310.52 376.875V351.179L1336.21 376.875H1310.52Z" fill="#001155"/>
<path d="M1336.22 376.875V351.179L1361.91 376.875H1336.22Z" fill="#001155"/>
<path d="M1361.91 376.875V351.179L1387.61 376.875H1361.91Z" fill="#001155"/>
<path d="M1387.61 376.875V351.179L1413.3 376.875H1387.61Z" fill="#001155"/>
<path d="M1413.3 376.875V351.179L1439 376.875H1413.3Z" fill="#001155"/>
<path d="M1233.43 351.179V325.482L1259.13 351.179H1233.43Z" fill="#001155"/>
<path d="M1259.13 351.179V325.482L1284.82 351.179H1259.13Z" fill="#001155"/>
<path d="M1284.82 351.179V325.482L1310.52 351.179H1284.82Z" fill="#001155"/>
<path d="M1310.52 351.179V325.482L1336.21 351.179H1310.52Z" fill="#001155"/>
<path d="M1336.22 351.179V325.482L1361.91 351.179H1336.22Z" fill="#001155"/>
<path d="M1361.91 351.179V325.482L1387.61 351.179H1361.91Z" fill="#001155"/>
<path d="M1387.61 351.179V325.482L1413.3 351.179H1387.61Z" fill="#001155"/>
<path d="M1413.3 351.179V325.482L1439 351.179H1413.3Z" fill="#001155"/>
<path d="M1233.43 325.482V299.786L1259.13 325.482H1233.43Z" fill="#001155"/>
<path d="M1259.13 325.482V299.786L1284.82 325.482H1259.13Z" fill="#001155"/>
<path d="M1284.82 325.482V299.786L1310.52 325.482H1284.82Z" fill="#001155"/>
<path d="M1310.52 325.482V299.786L1336.21 325.482H1310.52Z" fill="#001155"/>
<path d="M1336.22 325.482V299.786L1361.91 325.482H1336.22Z" fill="#001155"/>
<path d="M1361.91 325.482V299.786L1387.61 325.482H1361.91Z" fill="#001155"/>
<path d="M1387.61 325.482V299.786L1413.3 325.482H1387.61Z" fill="#001155"/>
<path d="M1413.3 325.482V299.786L1439 325.482H1413.3Z" fill="#001155"/>
<path d="M1233.43 299.786V274.089L1259.13 299.786H1233.43Z" fill="#001155"/>
<path d="M1259.13 299.786V274.089L1284.82 299.786H1259.13Z" fill="#001155"/>
<path d="M1284.82 299.786V274.089L1310.52 299.786H1284.82Z" fill="#001155"/>
<path d="M1310.52 299.786V274.089L1336.21 299.786H1310.52Z" fill="#001155"/>
<path d="M1336.22 299.786V274.089L1361.91 299.786H1336.22Z" fill="#001155"/>
<path d="M1361.91 299.786V274.089L1387.61 299.786H1361.91Z" fill="#001155"/>
<path d="M1387.61 299.786V274.089L1413.3 299.786H1387.61Z" fill="#001155"/>
<path d="M1413.3 299.786V274.089L1439 299.786H1413.3Z" fill="#001155"/>
<path d="M1233.43 274.089V248.393L1259.13 274.089H1233.43Z" fill="#001155"/>
<path d="M1259.13 274.089V248.393L1284.82 274.089H1259.13Z" fill="#001155"/>
<path d="M1284.82 274.089V248.393L1310.52 274.089H1284.82Z" fill="#001155"/>
<path d="M1310.52 274.089V248.393L1336.21 274.089H1310.52Z" fill="#001155"/>
<path d="M1336.22 274.089V248.393L1361.91 274.089H1336.22Z" fill="#001155"/>
<path d="M1361.91 274.089V248.393L1387.61 274.089H1361.91Z" fill="#001155"/>
<path d="M1387.61 274.089V248.393L1413.3 274.089H1387.61Z" fill="#001155"/>
<path d="M1413.3 274.089V248.393L1439 274.089H1413.3Z" fill="#001155"/>
<path d="M1233.43 248.393V222.697L1259.13 248.393H1233.43Z" fill="#001155"/>
<path d="M1259.13 248.393V222.697L1284.82 248.393H1259.13Z" fill="#001155"/>
<path d="M1284.82 248.393V222.697L1310.52 248.393H1284.82Z" fill="#001155"/>
<path d="M1310.52 248.393V222.697L1336.21 248.393H1310.52Z" fill="#001155"/>
<path d="M1336.22 248.393V222.697L1361.91 248.393H1336.22Z" fill="#001155"/>
<path d="M1361.91 248.393V222.697L1387.61 248.393H1361.91Z" fill="#001155"/>
<path d="M1387.61 248.393V222.697L1413.3 248.393H1387.61Z" fill="#001155"/>
<path d="M1413.3 248.393V222.697L1439 248.393H1413.3Z" fill="#001155"/>
<path d="M1233.43 222.697V197L1259.13 222.697H1233.43Z" fill="#001155"/>
<path d="M1259.13 222.697V197L1284.82 222.697H1259.13Z" fill="#001155"/>
<path d="M1284.82 222.697V197L1310.52 222.697H1284.82Z" fill="#001155"/>
<path d="M1310.52 222.697V197L1336.21 222.697H1310.52Z" fill="#001155"/>
<path d="M1336.22 222.697V197L1361.91 222.697H1336.22Z" fill="#001155"/>
<path d="M1361.91 222.697V197L1387.61 222.697H1361.91Z" fill="#001155"/>
<path d="M1387.61 222.697V197L1413.3 222.697H1387.61Z" fill="#001155"/>
<path d="M1413.3 222.697V197L1439 222.697H1413.3Z" fill="#001155"/>
</svg>
