<svg width="710" height="203" viewBox="0 0 710 203" fill="none" xmlns="http://www.w3.org/2000/svg">
<rect width="101.22" height="101.22" transform="matrix(-1 0 0 1 102.221 0.000152588)" fill="#123ADE"/>
<path d="M102.22 50.6103C102.22 78.5615 79.5614 101.221 51.6101 101.221L51.6101 4.57764e-05C79.5614 4.57764e-05 102.22 22.659 102.22 50.6103Z" fill="#032095"/>
<path d="M1.00001 50.6103C1.00001 78.5616 23.659 101.221 51.6102 101.221L51.6102 0.000106812C23.659 0.000106812 1.00001 22.6591 1.00001 50.6103Z" fill="#0A30CB"/>
<rect width="101.22" height="101.22" transform="matrix(0 -1 -1 0 203.441 101.221)" fill="#123ADE"/>
<path d="M102.221 101.221V88.568L114.873 101.221H102.221Z" fill="#001155"/>
<path d="M114.873 101.221V88.568L127.526 101.221H114.873Z" fill="#001155"/>
<path d="M127.526 101.221V88.568L140.179 101.221H127.526Z" fill="#001155"/>
<path d="M140.178 101.221V88.568L152.831 101.221H140.178Z" fill="#001155"/>
<path d="M152.831 101.221V88.568L165.484 101.221H152.831Z" fill="#001155"/>
<path d="M165.484 101.221V88.568L178.136 101.221H165.484Z" fill="#001155"/>
<path d="M178.136 101.221V88.568L190.789 101.221H178.136Z" fill="#001155"/>
<path d="M190.788 101.221V88.568L203.441 101.221H190.788Z" fill="#001155"/>
<path d="M102.221 88.568V75.9154L114.873 88.568H102.221Z" fill="#001155"/>
<path d="M114.873 88.568V75.9154L127.526 88.568H114.873Z" fill="#001155"/>
<path d="M127.526 88.568V75.9154L140.179 88.568H127.526Z" fill="#001155"/>
<path d="M140.178 88.568V75.9154L152.831 88.568H140.178Z" fill="#001155"/>
<path d="M152.831 88.568V75.9154L165.484 88.568H152.831Z" fill="#001155"/>
<path d="M165.484 88.568V75.9154L178.136 88.568H165.484Z" fill="#001155"/>
<path d="M178.136 88.568V75.9154L190.789 88.568H178.136Z" fill="#001155"/>
<path d="M102.221 75.9155V63.2629L114.873 75.9155H102.221Z" fill="#001155"/>
<path d="M114.873 75.9155V63.2629L127.526 75.9155H114.873Z" fill="#001155"/>
<path d="M127.526 75.9155V63.2629L140.179 75.9155H127.526Z" fill="#001155"/>
<path d="M140.178 75.9155V63.2629L152.831 75.9155H140.178Z" fill="#001155"/>
<path d="M152.831 75.9155V63.2629L165.484 75.9155H152.831Z" fill="#001155"/>
<path d="M165.484 75.9155V63.2629L178.136 75.9155H165.484Z" fill="#001155"/>
<path d="M102.221 63.2628V50.6103L114.873 63.2628H102.221Z" fill="#001155"/>
<path d="M114.873 63.2628V50.6103L127.526 63.2628H114.873Z" fill="#001155"/>
<path d="M127.526 63.2628V50.6103L140.179 63.2628H127.526Z" fill="#001155"/>
<path d="M140.178 63.2628V50.6103L152.831 63.2628H140.178Z" fill="#001155"/>
<path d="M152.831 63.2628V50.6103L165.484 63.2628H152.831Z" fill="#001155"/>
<path d="M102.221 50.6104V37.9578L114.873 50.6104H102.221Z" fill="#001155"/>
<path d="M114.873 50.6104V37.9578L127.526 50.6104H114.873Z" fill="#001155"/>
<path d="M127.526 50.6104V37.9578L140.179 50.6104H127.526Z" fill="#001155"/>
<path d="M140.178 50.6104V37.9578L152.831 50.6104H140.178Z" fill="#001155"/>
<path d="M102.221 37.9578V25.3052L114.873 37.9578H102.221Z" fill="#001155"/>
<path d="M114.873 37.9578V25.3052L127.526 37.9578H114.873Z" fill="#001155"/>
<path d="M127.526 37.9578V25.3052L140.179 37.9578H127.526Z" fill="#001155"/>
<path d="M102.221 25.3052V12.6526L114.873 25.3052H102.221Z" fill="#001155"/>
<path d="M114.873 25.3052V12.6526L127.526 25.3052H114.873Z" fill="#001155"/>
<path d="M102.221 12.6527V0.000120163L114.873 12.6527H102.221Z" fill="#001155"/>
<rect x="203.441" y="101.22" width="101.22" height="101.22" transform="rotate(-90 203.441 101.22)" fill="#123ADE"/>
<rect x="304.661" y="101.221" width="101.22" height="101.22" transform="rotate(-90 304.661 101.221)" fill="#123ADE"/>
<path d="M405.882 101.221V88.568L393.229 101.221H405.882Z" fill="#001155"/>
<path d="M393.229 101.221V88.568L380.576 101.221H393.229Z" fill="#001155"/>
<path d="M380.576 101.221V88.568L367.924 101.221H380.576Z" fill="#001155"/>
<path d="M367.924 101.221V88.568L355.271 101.221H367.924Z" fill="#001155"/>
<path d="M355.271 101.221V88.568L342.619 101.221H355.271Z" fill="#001155"/>
<path d="M342.619 101.221V88.568L329.966 101.221H342.619Z" fill="#001155"/>
<path d="M329.967 101.221V88.568L317.314 101.221H329.967Z" fill="#001155"/>
<path d="M317.314 101.221V88.568L304.661 101.221H317.314Z" fill="#001155"/>
<path d="M405.882 88.568V75.9154L393.229 88.568H405.882Z" fill="#001155"/>
<path d="M393.229 88.568V75.9154L380.576 88.568H393.229Z" fill="#001155"/>
<path d="M380.576 88.568V75.9154L367.924 88.568H380.576Z" fill="#001155"/>
<path d="M367.924 88.568V75.9154L355.271 88.568H367.924Z" fill="#001155"/>
<path d="M355.271 88.568V75.9154L342.619 88.568H355.271Z" fill="#001155"/>
<path d="M342.619 88.568V75.9154L329.966 88.568H342.619Z" fill="#001155"/>
<path d="M329.967 88.568V75.9154L317.314 88.568H329.967Z" fill="#001155"/>
<path d="M405.882 75.9155V63.2629L393.229 75.9155H405.882Z" fill="#001155"/>
<path d="M393.229 75.9155V63.2629L380.576 75.9155H393.229Z" fill="#001155"/>
<path d="M380.576 75.9155V63.2629L367.924 75.9155H380.576Z" fill="#001155"/>
<path d="M367.924 75.9155V63.2629L355.271 75.9155H367.924Z" fill="#001155"/>
<path d="M355.271 75.9155V63.2629L342.619 75.9155H355.271Z" fill="#001155"/>
<path d="M342.619 75.9155V63.2629L329.966 75.9155H342.619Z" fill="#001155"/>
<path d="M405.882 63.2629V50.6104L393.229 63.2629H405.882Z" fill="#001155"/>
<path d="M393.229 63.2629V50.6104L380.576 63.2629H393.229Z" fill="#001155"/>
<path d="M380.576 63.2629V50.6104L367.924 63.2629H380.576Z" fill="#001155"/>
<path d="M367.924 63.2629V50.6104L355.271 63.2629H367.924Z" fill="#001155"/>
<path d="M355.271 63.2629V50.6104L342.619 63.2629H355.271Z" fill="#001155"/>
<path d="M405.882 50.6104V37.9579L393.229 50.6104H405.882Z" fill="#001155"/>
<path d="M393.229 50.6104V37.9579L380.576 50.6104H393.229Z" fill="#001155"/>
<path d="M380.576 50.6104V37.9579L367.924 50.6104H380.576Z" fill="#001155"/>
<path d="M367.924 50.6104V37.9579L355.271 50.6104H367.924Z" fill="#001155"/>
<path d="M405.882 37.9579V25.3053L393.229 37.9579H405.882Z" fill="#001155"/>
<path d="M393.229 37.9579V25.3053L380.576 37.9579H393.229Z" fill="#001155"/>
<path d="M380.576 37.9579V25.3053L367.924 37.9579H380.576Z" fill="#001155"/>
<path d="M405.882 25.3052V12.6526L393.229 25.3052H405.882Z" fill="#001155"/>
<path d="M393.229 25.3052V12.6526L380.576 25.3052H393.229Z" fill="#001155"/>
<path d="M405.882 12.6528V0.000272751L393.229 12.6528H405.882Z" fill="#001155"/>
<rect x="405.882" y="101.221" width="101.22" height="101.22" transform="rotate(-90 405.882 101.221)" fill="#0A30CB"/>
<rect x="507.102" y="101.221" width="101.22" height="101.22" transform="rotate(-90 507.102 101.221)" fill="#123ADE"/>
<rect x="507.102" y="101.221" width="50.6102" height="101.22" transform="rotate(-90 507.102 101.221)" fill="#001155"/>
<path d="M608.322 50.6104C580.371 50.6104 557.712 27.9514 557.712 0.000114441H608.322V50.6104Z" fill="#032095"/>
<rect x="709.544" y="-6.10352e-05" width="101.22" height="101.22" transform="rotate(90 709.544 -6.10352e-05)" fill="#123ADE"/>
<path d="M709.543 101.221C709.543 87.928 706.925 74.7657 701.838 62.4851C696.752 50.2045 689.296 39.046 679.897 29.6468C670.497 20.2476 659.339 12.7918 647.058 7.70498C634.778 2.61817 621.615 2.99365e-05 608.323 3.05176e-05L608.323 101.221H709.543Z" fill="#0A30CB"/>
<path d="M658.933 101.22C658.933 94.5742 657.624 87.9931 655.081 81.8528C652.537 75.7125 648.809 70.1332 644.11 65.4336C639.41 60.734 633.831 57.0061 627.691 54.4627C621.55 51.9193 614.969 50.6102 608.323 50.6102L608.323 101.22H658.933Z" fill="#032095"/>
<rect x="1.00024" y="202.221" width="101.22" height="101.22" transform="rotate(-90 1.00024 202.221)" fill="#123ADE"/>
<path d="M0.999931 151.61C28.9512 151.61 51.6102 128.951 51.6102 101H0.999931V151.61Z" fill="#0A30CB"/>
<path d="M102.22 151.61C74.2691 151.61 51.6102 128.951 51.6102 101H102.22V151.61Z" fill="#032095"/>
<path d="M0.999931 151.61C28.9512 151.61 51.6102 174.269 51.6102 202.221H0.999931V151.61Z" fill="#0A30CB"/>
<path d="M102.22 151.61C74.2691 151.61 51.6102 174.269 51.6102 202.221H102.22V151.61Z" fill="#032095"/>
<rect width="101.22" height="101.22" transform="matrix(0 -1 -1 0 203.441 202.221)" fill="#123ADE"/>
<path d="M203.442 101C203.442 114.292 200.824 127.455 195.737 139.735C190.65 152.016 183.194 163.174 173.795 172.574C164.396 181.973 153.237 189.429 140.957 194.516C128.676 199.602 115.514 202.22 102.221 202.22L102.221 101H203.442Z" fill="#001155"/>
<path d="M152.832 101C152.832 107.646 151.523 114.227 148.979 120.368C146.436 126.508 142.708 132.087 138.008 136.787C133.309 141.487 127.729 145.214 121.589 147.758C115.449 150.301 108.868 151.61 102.221 151.61L102.221 101H152.832Z" fill="#032095"/>
<rect x="203.442" y="202.221" width="101.22" height="101.22" transform="rotate(-90 203.442 202.221)" fill="#123ADE"/>
<path d="M203.442 101C203.442 114.292 206.06 127.455 211.147 139.735C216.234 152.016 223.69 163.174 233.089 172.574C242.488 181.973 253.647 189.429 265.927 194.515C278.208 199.602 291.37 202.22 304.663 202.22L304.663 101H203.442Z" fill="#0A30CB"/>
<rect width="101.22" height="101.22" transform="matrix(0 -1 -1 0 405.883 202.22)" fill="#001155"/>
<path d="M304.663 202.22V101L405.883 202.22H304.663Z" fill="#001155"/>
<rect width="101.22" height="101.22" transform="matrix(0 1 1 0 405.883 101)" fill="#123ADE"/>
<path d="M456.493 151.61C484.445 151.61 507.104 174.269 507.104 202.22H405.883C405.883 174.269 428.542 151.61 456.493 151.61Z" fill="#032095"/>
<path d="M456.493 151.61C484.445 151.61 507.104 128.951 507.104 101L405.883 101C405.883 128.951 428.542 151.61 456.493 151.61Z" fill="#0A30CB"/>
<rect x="507.103" y="202.22" width="101.22" height="101.22" transform="rotate(-90 507.103 202.22)" fill="#123ADE"/>
<path d="M557.714 151.61C585.665 151.61 608.324 128.951 608.324 101H507.103C507.103 128.951 529.762 151.61 557.714 151.61Z" fill="#032095"/>
<rect width="101.22" height="101.22" transform="matrix(0 -1 -1 0 709.544 202.22)" fill="#123ADE"/>
<path d="M608.324 202.22V189.568L620.977 202.22H608.324Z" fill="#001155"/>
<path d="M620.977 202.22V189.568L633.629 202.22H620.977Z" fill="#001155"/>
<path d="M633.629 202.22V189.568L646.282 202.22H633.629Z" fill="#001155"/>
<path d="M646.282 202.22V189.568L658.934 202.22H646.282Z" fill="#001155"/>
<path d="M658.934 202.22V189.568L671.587 202.22H658.934Z" fill="#001155"/>
<path d="M671.587 202.22V189.568L684.239 202.22H671.587Z" fill="#001155"/>
<path d="M684.239 202.22V189.568L696.892 202.22H684.239Z" fill="#001155"/>
<path d="M696.892 202.22V189.568L709.544 202.22H696.892Z" fill="#001155"/>
<path d="M608.324 189.568V176.915L620.977 189.568H608.324Z" fill="#001155"/>
<path d="M620.977 189.568V176.915L633.629 189.568H620.977Z" fill="#001155"/>
<path d="M633.629 189.568V176.915L646.282 189.568H633.629Z" fill="#001155"/>
<path d="M646.282 189.568V176.915L658.934 189.568H646.282Z" fill="#001155"/>
<path d="M658.934 189.568V176.915L671.587 189.568H658.934Z" fill="#001155"/>
<path d="M671.587 189.568V176.915L684.239 189.568H671.587Z" fill="#001155"/>
<path d="M684.239 189.568V176.915L696.892 189.568H684.239Z" fill="#001155"/>
<path d="M696.892 189.568V176.915L709.544 189.568H696.892Z" fill="#001155"/>
<path d="M608.324 176.915V164.263L620.977 176.915H608.324Z" fill="#001155"/>
<path d="M620.977 176.915V164.263L633.629 176.915H620.977Z" fill="#001155"/>
<path d="M633.629 176.915V164.263L646.282 176.915H633.629Z" fill="#001155"/>
<path d="M646.282 176.915V164.263L658.934 176.915H646.282Z" fill="#001155"/>
<path d="M658.934 176.915V164.263L671.587 176.915H658.934Z" fill="#001155"/>
<path d="M671.587 176.915V164.263L684.239 176.915H671.587Z" fill="#001155"/>
<path d="M684.239 176.915V164.263L696.892 176.915H684.239Z" fill="#001155"/>
<path d="M696.892 176.915V164.263L709.544 176.915H696.892Z" fill="#001155"/>
<path d="M608.324 164.263V151.61L620.977 164.263H608.324Z" fill="#001155"/>
<path d="M620.977 164.263V151.61L633.629 164.263H620.977Z" fill="#001155"/>
<path d="M633.629 164.263V151.61L646.282 164.263H633.629Z" fill="#001155"/>
<path d="M646.282 164.263V151.61L658.934 164.263H646.282Z" fill="#001155"/>
<path d="M658.934 164.263V151.61L671.587 164.263H658.934Z" fill="#001155"/>
<path d="M671.587 164.263V151.61L684.239 164.263H671.587Z" fill="#001155"/>
<path d="M684.239 164.263V151.61L696.892 164.263H684.239Z" fill="#001155"/>
<path d="M696.892 164.263V151.61L709.544 164.263H696.892Z" fill="#001155"/>
<path d="M608.324 151.61V138.958L620.977 151.61H608.324Z" fill="#001155"/>
<path d="M620.977 151.61V138.958L633.629 151.61H620.977Z" fill="#001155"/>
<path d="M633.629 151.61V138.958L646.282 151.61H633.629Z" fill="#001155"/>
<path d="M646.282 151.61V138.958L658.934 151.61H646.282Z" fill="#001155"/>
<path d="M658.934 151.61V138.958L671.587 151.61H658.934Z" fill="#001155"/>
<path d="M671.587 151.61V138.958L684.239 151.61H671.587Z" fill="#001155"/>
<path d="M684.239 151.61V138.958L696.892 151.61H684.239Z" fill="#001155"/>
<path d="M696.892 151.61V138.958L709.544 151.61H696.892Z" fill="#001155"/>
<path d="M608.324 138.958V126.305L620.977 138.958H608.324Z" fill="#001155"/>
<path d="M620.977 138.958V126.305L633.629 138.958H620.977Z" fill="#001155"/>
<path d="M633.629 138.958V126.305L646.282 138.958H633.629Z" fill="#001155"/>
<path d="M646.282 138.958V126.305L658.934 138.958H646.282Z" fill="#001155"/>
<path d="M658.934 138.958V126.305L671.587 138.958H658.934Z" fill="#001155"/>
<path d="M671.587 138.958V126.305L684.239 138.958H671.587Z" fill="#001155"/>
<path d="M684.239 138.958V126.305L696.892 138.958H684.239Z" fill="#001155"/>
<path d="M696.892 138.958V126.305L709.544 138.958H696.892Z" fill="#001155"/>
<path d="M608.324 126.305V113.653L620.977 126.305H608.324Z" fill="#001155"/>
<path d="M620.977 126.305V113.653L633.629 126.305H620.977Z" fill="#001155"/>
<path d="M633.629 126.305V113.653L646.282 126.305H633.629Z" fill="#001155"/>
<path d="M646.282 126.305V113.653L658.934 126.305H646.282Z" fill="#001155"/>
<path d="M658.934 126.305V113.653L671.587 126.305H658.934Z" fill="#001155"/>
<path d="M671.587 126.305V113.653L684.239 126.305H671.587Z" fill="#001155"/>
<path d="M684.239 126.305V113.653L696.892 126.305H684.239Z" fill="#001155"/>
<path d="M696.892 126.305V113.653L709.544 126.305H696.892Z" fill="#001155"/>
<path d="M608.324 113.653V101L620.977 113.653H608.324Z" fill="#001155"/>
<path d="M620.977 113.653V101L633.629 113.653H620.977Z" fill="#001155"/>
<path d="M633.629 113.653V101L646.282 113.653H633.629Z" fill="#001155"/>
<path d="M646.282 113.653V101L658.934 113.653H646.282Z" fill="#001155"/>
<path d="M658.934 113.653V101L671.587 113.653H658.934Z" fill="#001155"/>
<path d="M671.587 113.653V101L684.239 113.653H671.587Z" fill="#001155"/>
<path d="M684.239 113.653V101L696.892 113.653H684.239Z" fill="#001155"/>
<path d="M696.892 113.653V101L709.544 113.653H696.892Z" fill="#001155"/>
</svg>
