<svg width="64" height="64" viewBox="0 0 64 64" fill="none" xmlns="http://www.w3.org/2000/svg">
<rect width="192.5" height="110" transform="matrix(-1 0 0 -1 63.5 110)" fill="#001155"/>
<rect width="27.5" height="27.5" transform="matrix(1 0 0 -1 36 82.5)" fill="#123ADE"/>
<path d="M36 68.75C36 61.1561 42.1561 55 49.75 55V82.5C42.1561 82.5 36 76.3439 36 68.75Z" fill="#032095"/>
<path d="M63.5 68.75C63.5 61.1561 57.3439 55 49.75 55L49.75 82.5C57.3439 82.5 63.5 76.3439 63.5 68.75Z" fill="#0A30CB"/>
<rect width="27.5" height="27.5" transform="matrix(0 1 1 0 8.5 55)" fill="#123ADE"/>
<path d="M36 55V58.4375L32.5625 55H36Z" fill="#001155"/>
<path d="M32.5625 55V58.4375L29.125 55H32.5625Z" fill="#001155"/>
<path d="M29.125 55V58.4375L25.6875 55H29.125Z" fill="#001155"/>
<path d="M25.6875 55V58.4375L22.25 55H25.6875Z" fill="#001155"/>
<path d="M22.25 55V58.4375L18.8125 55H22.25Z" fill="#001155"/>
<path d="M18.8125 55V58.4375L15.375 55H18.8125Z" fill="#001155"/>
<path d="M15.375 55V58.4375L11.9375 55H15.375Z" fill="#001155"/>
<path d="M11.9375 55V58.4375L8.5 55H11.9375Z" fill="#001155"/>
<path d="M36 58.4375V61.875L32.5625 58.4375H36Z" fill="#001155"/>
<path d="M32.5625 58.4375V61.875L29.125 58.4375H32.5625Z" fill="#001155"/>
<path d="M29.125 58.4375V61.875L25.6875 58.4375H29.125Z" fill="#001155"/>
<path d="M25.6875 58.4375V61.875L22.25 58.4375H25.6875Z" fill="#001155"/>
<path d="M22.25 58.4375V61.875L18.8125 58.4375H22.25Z" fill="#001155"/>
<path d="M18.8125 58.4375V61.875L15.375 58.4375H18.8125Z" fill="#001155"/>
<path d="M15.375 58.4375V61.875L11.9375 58.4375H15.375Z" fill="#001155"/>
<path d="M36 61.875V65.3125L32.5625 61.875H36Z" fill="#001155"/>
<path d="M32.5625 61.875V65.3125L29.125 61.875H32.5625Z" fill="#001155"/>
<path d="M29.125 61.875V65.3125L25.6875 61.875H29.125Z" fill="#001155"/>
<path d="M25.6875 61.875V65.3125L22.25 61.875H25.6875Z" fill="#001155"/>
<path d="M22.25 61.875V65.3125L18.8125 61.875H22.25Z" fill="#001155"/>
<path d="M18.8125 61.875V65.3125L15.375 61.875H18.8125Z" fill="#001155"/>
<rect x="8.5" y="55" width="27.5" height="27.5" transform="rotate(90 8.5 55)" fill="#123ADE"/>
<rect x="63.5" y="27.5" width="27.5" height="27.5" transform="rotate(90 63.5 27.5)" fill="#123ADE"/>
<path d="M63.4998 41.25C55.9058 41.25 49.7498 47.4061 49.7498 55H63.4998V41.25Z" fill="#0A30CB"/>
<path d="M35.9997 41.25C43.5937 41.25 49.7498 47.4061 49.7498 55H35.9997V41.25Z" fill="#032095"/>
<path d="M63.4998 41.25C55.9058 41.25 49.7498 35.0939 49.7498 27.5H63.4998V41.25Z" fill="#0A30CB"/>
<path d="M35.9997 41.25C43.5937 41.25 49.7498 35.0939 49.7498 27.5H35.9997V41.25Z" fill="#032095"/>
<rect width="27.5" height="27.5" transform="matrix(0 1 1 0 8.5 27.5)" fill="#123ADE"/>
<path d="M8.49998 55C8.49998 51.3887 9.21129 47.8127 10.5933 44.4762C11.9753 41.1398 14.0009 38.1082 16.5546 35.5546C19.1082 33.001 22.1397 30.9753 25.4762 29.5933C28.8127 28.2113 32.3886 27.5 36 27.5L36 55H8.49998Z" fill="#001155"/>
<path d="M22.25 55C22.25 53.1943 22.6056 51.4063 23.2966 49.7381C23.9877 48.0699 25.0005 46.5541 26.2773 45.2773C27.5541 44.0005 29.0699 42.9877 30.7381 42.2967C32.4063 41.6057 34.1943 41.25 36 41.25L36 55H22.25Z" fill="#032095"/>
<rect x="8.5" y="27.5" width="27.5" height="27.5" transform="rotate(90 8.5 27.5)" fill="#123ADE"/>
<path d="M8.50002 55C8.50002 51.3887 7.78871 47.8127 6.4067 44.4762C5.0247 41.1398 2.99906 38.1082 0.44545 35.5546C-2.10816 33.001 -5.13974 30.9753 -8.4762 29.5933C-11.8127 28.2113 -15.3886 27.5 -19 27.5L-19 55H8.50002Z" fill="#0A30CB"/>
<rect width="27.5" height="27.5" transform="matrix(1 0 0 -1 36 27.5)" fill="#123ADE"/>
<path d="M36 13.75C36 6.15609 42.1561 0 49.75 0V27.5C42.1561 27.5 36 21.3439 36 13.75Z" fill="#032095"/>
<path d="M63.5 13.75C63.5 6.15609 57.3439 0 49.75 0L49.75 27.5C57.3439 27.5 63.5 21.3439 63.5 13.75Z" fill="#0A30CB"/>
<rect width="27.5" height="27.5" transform="matrix(0 1 1 0 8.5 0)" fill="#123ADE"/>
<path d="M36 0V3.4375L32.5625 0L36 0Z" fill="#001155"/>
<path d="M32.5625 0V3.4375L29.125 0L32.5625 0Z" fill="#001155"/>
<path d="M29.125 0V3.4375L25.6875 0L29.125 0Z" fill="#001155"/>
<path d="M25.6875 0V3.4375L22.25 0L25.6875 0Z" fill="#001155"/>
<path d="M22.25 0V3.4375L18.8125 0L22.25 0Z" fill="#001155"/>
<path d="M18.8125 0V3.4375L15.375 0L18.8125 0Z" fill="#001155"/>
<path d="M15.375 0V3.4375L11.9375 0L15.375 0Z" fill="#001155"/>
<path d="M11.9375 0V3.4375L8.5 0L11.9375 0Z" fill="#001155"/>
<path d="M36 3.4375V6.875L32.5625 3.4375H36Z" fill="#001155"/>
<path d="M32.5625 3.4375V6.875L29.125 3.4375H32.5625Z" fill="#001155"/>
<path d="M29.125 3.4375V6.875L25.6875 3.4375H29.125Z" fill="#001155"/>
<path d="M25.6875 3.4375V6.875L22.25 3.4375H25.6875Z" fill="#001155"/>
<path d="M22.25 3.4375V6.875L18.8125 3.4375H22.25Z" fill="#001155"/>
<path d="M18.8125 3.4375V6.875L15.375 3.4375H18.8125Z" fill="#001155"/>
<path d="M15.375 3.4375V6.875L11.9375 3.4375H15.375Z" fill="#001155"/>
<path d="M11.9375 3.4375V6.875L8.5 3.4375H11.9375Z" fill="#001155"/>
<path d="M36 6.875V10.3125L32.5625 6.875H36Z" fill="#001155"/>
<path d="M32.5625 6.875V10.3125L29.125 6.875H32.5625Z" fill="#001155"/>
<path d="M29.125 6.875V10.3125L25.6875 6.875H29.125Z" fill="#001155"/>
<path d="M25.6875 6.875V10.3125L22.25 6.875H25.6875Z" fill="#001155"/>
<path d="M22.25 6.875V10.3125L18.8125 6.875H22.25Z" fill="#001155"/>
<path d="M18.8125 6.875V10.3125L15.375 6.875H18.8125Z" fill="#001155"/>
<path d="M15.375 6.875V10.3125L11.9375 6.875H15.375Z" fill="#001155"/>
<path d="M11.9375 6.875V10.3125L8.5 6.875H11.9375Z" fill="#001155"/>
<path d="M36 10.3125V13.75L32.5625 10.3125H36Z" fill="#001155"/>
<path d="M32.5625 10.3125V13.75L29.125 10.3125H32.5625Z" fill="#001155"/>
<path d="M29.125 10.3125V13.75L25.6875 10.3125H29.125Z" fill="#001155"/>
<path d="M25.6875 10.3125V13.75L22.25 10.3125H25.6875Z" fill="#001155"/>
<path d="M22.25 10.3125V13.75L18.8125 10.3125H22.25Z" fill="#001155"/>
<path d="M18.8125 10.3125V13.75L15.375 10.3125H18.8125Z" fill="#001155"/>
<path d="M15.375 10.3125V13.75L11.9375 10.3125H15.375Z" fill="#001155"/>
<path d="M11.9375 10.3125V13.75L8.5 10.3125H11.9375Z" fill="#001155"/>
<path d="M36 13.7499V17.1874L32.5625 13.7499H36Z" fill="#001155"/>
<path d="M32.5625 13.7499V17.1874L29.125 13.7499H32.5625Z" fill="#001155"/>
<path d="M29.125 13.7499V17.1874L25.6875 13.7499H29.125Z" fill="#001155"/>
<path d="M25.6875 13.7499V17.1874L22.25 13.7499H25.6875Z" fill="#001155"/>
<path d="M22.25 13.7499V17.1874L18.8125 13.7499H22.25Z" fill="#001155"/>
<path d="M18.8125 13.7499V17.1874L15.375 13.7499H18.8125Z" fill="#001155"/>
<path d="M15.375 13.7499V17.1874L11.9375 13.7499H15.375Z" fill="#001155"/>
<path d="M11.9375 13.7499V17.1874L8.5 13.7499H11.9375Z" fill="#001155"/>
<path d="M36 17.1875V20.625L32.5625 17.1875H36Z" fill="#001155"/>
<path d="M32.5625 17.1875V20.625L29.125 17.1875H32.5625Z" fill="#001155"/>
<path d="M29.125 17.1875V20.625L25.6875 17.1875H29.125Z" fill="#001155"/>
<path d="M25.6875 17.1875V20.625L22.25 17.1875H25.6875Z" fill="#001155"/>
<path d="M22.25 17.1875V20.625L18.8125 17.1875H22.25Z" fill="#001155"/>
<path d="M18.8125 17.1875V20.625L15.375 17.1875H18.8125Z" fill="#001155"/>
<path d="M15.375 17.1875V20.625L11.9375 17.1875H15.375Z" fill="#001155"/>
<path d="M11.9375 17.1875V20.625L8.5 17.1875H11.9375Z" fill="#001155"/>
<path d="M36 20.625V24.0625L32.5625 20.625H36Z" fill="#001155"/>
<path d="M32.5625 20.625V24.0625L29.125 20.625H32.5625Z" fill="#001155"/>
<path d="M29.125 20.625V24.0625L25.6875 20.625H29.125Z" fill="#001155"/>
<path d="M25.6875 20.625V24.0625L22.25 20.625H25.6875Z" fill="#001155"/>
<path d="M22.25 20.625V24.0625L18.8125 20.625H22.25Z" fill="#001155"/>
<path d="M18.8125 20.625V24.0625L15.375 20.625H18.8125Z" fill="#001155"/>
<path d="M15.375 20.625V24.0625L11.9375 20.625H15.375Z" fill="#001155"/>
<path d="M11.9375 20.625V24.0625L8.5 20.625H11.9375Z" fill="#001155"/>
<path d="M36 24.0625V27.5L32.5625 24.0625H36Z" fill="#001155"/>
<path d="M32.5625 24.0625V27.5L29.125 24.0625H32.5625Z" fill="#001155"/>
<path d="M29.125 24.0625V27.5L25.6875 24.0625H29.125Z" fill="#001155"/>
<path d="M25.6875 24.0625V27.5L22.25 24.0625H25.6875Z" fill="#001155"/>
<path d="M22.25 24.0625V27.5L18.8125 24.0625H22.25Z" fill="#001155"/>
<path d="M18.8125 24.0625V27.5L15.375 24.0625H18.8125Z" fill="#001155"/>
<path d="M15.375 24.0625V27.5L11.9375 24.0625H15.375Z" fill="#001155"/>
<path d="M11.9375 24.0625V27.5L8.5 24.0625H11.9375Z" fill="#001155"/>
<rect x="8.5" width="27.5" height="27.5" transform="rotate(90 8.5 0)" fill="#0A30CB"/>
<path d="M-19 0V27.5L8.5 0L-19 0Z" fill="#001155"/>
</svg>
