<svg width="64" height="64" viewBox="0 0 64 64" fill="none" xmlns="http://www.w3.org/2000/svg">
<rect width="192.5" height="110" transform="matrix(-1 0 0 -1 192.5 64)" fill="#001155"/>
<rect width="27.5" height="27.5" transform="matrix(-1 0 0 1 82.4998 36.5)" fill="#123ADE"/>
<path d="M54.9998 50.25C54.9998 57.8439 61.1558 64 68.7498 64V36.5C61.1558 36.5 54.9998 42.6561 54.9998 50.25Z" fill="#032095"/>
<rect x="54.9998" y="64" width="27.5" height="27.5" transform="rotate(-180 54.9998 64)" fill="#0A30CB"/>
<rect x="54.9998" y="64" width="13.75" height="27.5" transform="rotate(-180 54.9998 64)" fill="#0A30CB"/>
<path d="M41.2498 64C41.2498 56.4061 35.0937 50.25 27.4997 50.25V64H41.2498Z" fill="#032095"/>
<path d="M41.2498 36.5C41.2498 44.0939 35.0937 50.25 27.4997 50.25V36.5H41.2498Z" fill="#123ADE"/>
<rect width="27.5" height="27.5" transform="matrix(1 0 0 -1 -0.000244141 64)" fill="#123ADE"/>
<path d="M-0.000244141 36.5H27.4998L-0.000244141 64V36.5Z" fill="#001155"/>
<rect x="82.5" y="9" width="27.5" height="27.5" transform="rotate(90 82.5 9)" fill="#0A30CB"/>
<rect x="54.9998" y="9" width="27.5" height="27.5" transform="rotate(90 54.9998 9)" fill="#123ADE"/>
<rect x="54.9998" y="9" width="13.75" height="27.5" transform="rotate(90 54.9998 9)" fill="#001155"/>
<path d="M27.4997 22.75C35.0937 22.75 41.2498 28.9061 41.2498 36.5H27.4997V22.75Z" fill="#032095"/>
<rect x="-0.000244141" y="36.5" width="27.5" height="27.5" transform="rotate(-90 -0.000244141 36.5)" fill="#123ADE"/>
<path d="M-0.000261736 8.99998C-0.000261736 12.6113 0.711047 16.1873 2.09305 19.5238C3.47506 22.8602 5.50069 25.8918 8.05431 28.4454C10.6079 30.999 13.6395 33.0247 16.976 34.4067C20.3124 35.7887 23.8884 36.5 27.4998 36.5L27.4998 8.99998H-0.000261736Z" fill="#0A30CB"/>
<path d="M13.7497 8.99999C13.7497 10.8057 14.1054 12.5937 14.7964 14.2619C15.4874 15.9301 16.5002 17.4459 17.777 18.7227C19.0538 19.9995 20.5696 21.0123 22.2379 21.7033C23.9061 22.3943 25.6941 22.75 27.4998 22.75L27.4998 8.99999H13.7497Z" fill="#032095"/>
<rect width="27.5" height="27.5" transform="matrix(0 -1 -1 0 82.5 9)" fill="#123ADE"/>
<path d="M68.75 -4.75C61.1561 -4.75 55 1.40609 55 9.00001L82.5 9.00001C82.5 1.40609 76.3439 -4.75 68.75 -4.75Z" fill="#0A30CB"/>
<rect x="54.9998" y="-18.5" width="27.5" height="27.5" transform="rotate(90 54.9998 -18.5)" fill="#123ADE"/>
<path d="M41.2498 -4.75C33.6558 -4.75 27.4998 1.40609 27.4998 9.00001H54.9998C54.9998 1.40609 48.8437 -4.75 41.2498 -4.75Z" fill="#032095"/>
<rect width="27.5" height="27.5" transform="matrix(0 1 1 0 -0.000244141 -18.5)" fill="#123ADE"/>
<path d="M27.4998 -1.3125V2.125L24.0623 -1.3125L27.4998 -1.3125Z" fill="#001155"/>
<path d="M24.0623 -1.3125V2.125L20.6248 -1.3125L24.0623 -1.3125Z" fill="#001155"/>
<path d="M20.6248 -1.3125V2.125L17.1873 -1.3125L20.6248 -1.3125Z" fill="#001155"/>
<path d="M17.1873 -1.3125V2.125L13.7498 -1.3125L17.1873 -1.3125Z" fill="#001155"/>
<path d="M13.7498 -1.3125V2.125L10.3123 -1.3125L13.7498 -1.3125Z" fill="#001155"/>
<path d="M10.3123 -1.3125V2.125L6.87476 -1.3125L10.3123 -1.3125Z" fill="#001155"/>
<path d="M6.87476 -1.3125V2.125L3.43726 -1.3125L6.87476 -1.3125Z" fill="#001155"/>
<path d="M3.43726 -1.3125V2.125L-0.000244141 -1.3125L3.43726 -1.3125Z" fill="#001155"/>
<path d="M27.4998 2.125V5.5625L24.0623 2.125H27.4998Z" fill="#001155"/>
<path d="M24.0623 2.125V5.5625L20.6248 2.125H24.0623Z" fill="#001155"/>
<path d="M20.6248 2.125V5.5625L17.1873 2.125H20.6248Z" fill="#001155"/>
<path d="M17.1873 2.125V5.5625L13.7498 2.125H17.1873Z" fill="#001155"/>
<path d="M13.7498 2.125V5.5625L10.3123 2.125H13.7498Z" fill="#001155"/>
<path d="M10.3123 2.125V5.5625L6.87476 2.125H10.3123Z" fill="#001155"/>
<path d="M6.87476 2.125V5.5625L3.43726 2.125H6.87476Z" fill="#001155"/>
<path d="M3.43726 2.125V5.5625L-0.000244141 2.125H3.43726Z" fill="#001155"/>
<path d="M27.4998 5.5625V9L24.0623 5.5625H27.4998Z" fill="#001155"/>
<path d="M24.0623 5.5625V9L20.6248 5.5625H24.0623Z" fill="#001155"/>
<path d="M20.6248 5.5625V9L17.1873 5.5625H20.6248Z" fill="#001155"/>
<path d="M17.1873 5.5625V9L13.7498 5.5625H17.1873Z" fill="#001155"/>
<path d="M13.7498 5.5625V9L10.3123 5.5625H13.7498Z" fill="#001155"/>
<path d="M10.3123 5.5625V9L6.87476 5.5625H10.3123Z" fill="#001155"/>
<path d="M6.87476 5.5625V9L3.43726 5.5625H6.87476Z" fill="#001155"/>
<path d="M3.43726 5.5625V9L-0.000244141 5.5625H3.43726Z" fill="#001155"/>
</svg>
