<svg width="1440" height="844" viewBox="0 0 1440 844" fill="none" xmlns="http://www.w3.org/2000/svg">
<g clip-path="url(#clip0_106_321)">
<rect x="1234" y="691.571" width="102.786" height="205.571" transform="rotate(-90 1234 691.571)" fill="#001155"/>
<path d="M1439.57 588.786C1382.8 588.786 1336.79 542.767 1336.79 486H1439.57V588.786Z" fill="#032095"/>
<path d="M0.00012207 422V438L16.0001 422H0.00012207Z" fill="#001155"/>
<path d="M16.0001 422V438L32.0001 422H16.0001Z" fill="#001155"/>
<path d="M32.0002 422V438L48.0002 422H32.0002Z" fill="#001155"/>
<path d="M48.0001 422V438L64.0001 422H48.0001Z" fill="#001155"/>
<path d="M64.0002 422V438L80.0002 422H64.0002Z" fill="#001155"/>
<path d="M80.0001 422V438L96.0001 422H80.0001Z" fill="#001155"/>
<path d="M96.0001 422V438L112 422H96.0001Z" fill="#001155"/>
<path d="M112 422V438L128 422H112Z" fill="#001155"/>
<path d="M0.00012207 438V454L16.0001 438H0.00012207Z" fill="#001155"/>
<path d="M16.0001 438V454L32.0001 438H16.0001Z" fill="#001155"/>
<path d="M32.0002 438V454L48.0002 438H32.0002Z" fill="#001155"/>
<path d="M48.0001 438V454L64.0001 438H48.0001Z" fill="#001155"/>
<path d="M64.0002 438V454L80.0002 438H64.0002Z" fill="#001155"/>
<path d="M80.0001 438V454L96.0001 438H80.0001Z" fill="#001155"/>
<path d="M96.0001 438V454L112 438H96.0001Z" fill="#001155"/>
<path d="M0.00012207 454V470L16.0001 454H0.00012207Z" fill="#001155"/>
<path d="M16.0001 454V470L32.0001 454H16.0001Z" fill="#001155"/>
<path d="M32.0002 454V470L48.0002 454H32.0002Z" fill="#001155"/>
<path d="M48.0001 454V470L64.0001 454H48.0001Z" fill="#001155"/>
<path d="M64.0002 454V470L80.0002 454H64.0002Z" fill="#001155"/>
<path d="M80.0001 454V470L96.0001 454H80.0001Z" fill="#001155"/>
<path d="M0.00012207 470V486L16.0001 470H0.00012207Z" fill="#001155"/>
<path d="M16.0001 470V486L32.0001 470H16.0001Z" fill="#001155"/>
<path d="M32.0002 470V486L48.0002 470H32.0002Z" fill="#001155"/>
<path d="M48.0001 470V486L64.0001 470H48.0001Z" fill="#001155"/>
<path d="M64.0002 470V486L80.0002 470H64.0002Z" fill="#001155"/>
<path d="M0.00012207 486V502L16.0001 486H0.00012207Z" fill="#001155"/>
<path d="M16.0001 486V502L32.0001 486H16.0001Z" fill="#001155"/>
<path d="M32.0002 486V502L48.0002 486H32.0002Z" fill="#001155"/>
<path d="M48.0001 486V502L64.0001 486H48.0001Z" fill="#001155"/>
<path d="M0.00012207 502V518L16.0001 502H0.00012207Z" fill="#001155"/>
<path d="M16.0001 502V518L32.0001 502H16.0001Z" fill="#001155"/>
<path d="M32.0002 502V518L48.0002 502H32.0002Z" fill="#001155"/>
<path d="M0.00012207 518V534L16.0001 518H0.00012207Z" fill="#001155"/>
<path d="M16.0001 518V534L32.0001 518H16.0001Z" fill="#001155"/>
<path d="M0.00012207 534V550L16.0001 534H0.00012207Z" fill="#001155"/>
<path d="M364 0C337.49 0 316 21.4903 316 48L412 48C412 21.4903 390.51 0 364 0Z" fill="#032095"/>
<path d="M364 95.9999C337.49 95.9999 316 74.5096 316 48H412C412 74.5096 390.51 95.9999 364 95.9999Z" fill="#0A30CB"/>
</g>
<defs>
<clipPath id="clip0_106_321">
<rect width="1440" height="844" fill="white"/>
</clipPath>
</defs>
</svg>
