<svg width="64" height="64" viewBox="0 0 64 64" fill="none" xmlns="http://www.w3.org/2000/svg">
<rect width="192.5" height="110" transform="matrix(-1 0 0 -1 192.5 110)" fill="#001155"/>
<rect x="82.5" y="55" width="27.5" height="27.5" transform="rotate(90 82.5 55)" fill="#0A30CB"/>
<rect x="54.9998" y="55" width="27.5" height="27.5" transform="rotate(90 54.9998 55)" fill="#123ADE"/>
<rect x="54.9998" y="55" width="13.75" height="27.5" transform="rotate(90 54.9998 55)" fill="#001155"/>
<rect x="-0.000244141" y="82.5" width="27.5" height="27.5" transform="rotate(-90 -0.000244141 82.5)" fill="#123ADE"/>
<path d="M-0.000261736 55C-0.000261736 58.6113 0.711047 62.1873 2.09305 65.5238C3.47506 68.8602 5.50069 71.8918 8.05431 74.4454C10.6079 76.999 13.6395 79.0247 16.976 80.4067C20.3124 81.7887 23.8884 82.5 27.4998 82.5L27.4998 55H-0.000261736Z" fill="#0A30CB"/>
<path d="M13.7497 55C13.7497 56.8057 14.1054 58.5937 14.7964 60.2619C15.4874 61.9301 16.5002 63.4459 17.777 64.7227C19.0538 65.9995 20.5696 67.0123 22.2379 67.7033C23.9061 68.3943 25.6941 68.75 27.4998 68.75L27.4998 55H13.7497Z" fill="#032095"/>
<rect width="27.5" height="27.5" transform="matrix(0 -1 -1 0 82.5 55)" fill="#123ADE"/>
<path d="M68.75 41.25C61.1561 41.25 55 35.0939 55 27.5L82.5 27.5C82.5 35.0939 76.3439 41.25 68.75 41.25Z" fill="#032095"/>
<path d="M68.75 41.25C61.1561 41.25 55 47.4061 55 55L82.5 55C82.5 47.4061 76.3439 41.25 68.75 41.25Z" fill="#0A30CB"/>
<rect x="54.9998" y="27.5" width="27.5" height="27.5" transform="rotate(90 54.9998 27.5)" fill="#123ADE"/>
<path d="M41.2498 41.25C33.6558 41.25 27.4998 47.4061 27.4998 55H54.9998C54.9998 47.4061 48.8437 41.25 41.2498 41.25Z" fill="#032095"/>
<rect width="27.5" height="27.5" transform="matrix(0 1 1 0 -0.000244141 27.5)" fill="#123ADE"/>
<path d="M27.4998 27.5V30.9375L24.0623 27.5H27.4998Z" fill="#001155"/>
<path d="M24.0623 27.5V30.9375L20.6248 27.5H24.0623Z" fill="#001155"/>
<path d="M20.6248 27.5V30.9375L17.1873 27.5H20.6248Z" fill="#001155"/>
<path d="M17.1873 27.5V30.9375L13.7498 27.5H17.1873Z" fill="#001155"/>
<path d="M13.7498 27.5V30.9375L10.3123 27.5H13.7498Z" fill="#001155"/>
<path d="M10.3123 27.5V30.9375L6.87476 27.5H10.3123Z" fill="#001155"/>
<path d="M6.87476 27.5V30.9375L3.43726 27.5H6.87476Z" fill="#001155"/>
<path d="M3.43726 27.5V30.9375L-0.000244141 27.5H3.43726Z" fill="#001155"/>
<path d="M27.4998 30.9375V34.375L24.0623 30.9375H27.4998Z" fill="#001155"/>
<path d="M24.0623 30.9375V34.375L20.6248 30.9375H24.0623Z" fill="#001155"/>
<path d="M20.6248 30.9375V34.375L17.1873 30.9375H20.6248Z" fill="#001155"/>
<path d="M17.1873 30.9375V34.375L13.7498 30.9375H17.1873Z" fill="#001155"/>
<path d="M13.7498 30.9375V34.375L10.3123 30.9375H13.7498Z" fill="#001155"/>
<path d="M10.3123 30.9375V34.375L6.87476 30.9375H10.3123Z" fill="#001155"/>
<path d="M6.87476 30.9375V34.375L3.43726 30.9375H6.87476Z" fill="#001155"/>
<path d="M3.43726 30.9375V34.375L-0.000244141 30.9375H3.43726Z" fill="#001155"/>
<path d="M27.4998 34.375V37.8125L24.0623 34.375H27.4998Z" fill="#001155"/>
<path d="M24.0623 34.375V37.8125L20.6248 34.375H24.0623Z" fill="#001155"/>
<path d="M20.6248 34.375V37.8125L17.1873 34.375H20.6248Z" fill="#001155"/>
<path d="M17.1873 34.375V37.8125L13.7498 34.375H17.1873Z" fill="#001155"/>
<path d="M13.7498 34.375V37.8125L10.3123 34.375H13.7498Z" fill="#001155"/>
<path d="M10.3123 34.375V37.8125L6.87476 34.375H10.3123Z" fill="#001155"/>
<path d="M6.87476 34.375V37.8125L3.43726 34.375H6.87476Z" fill="#001155"/>
<path d="M3.43726 34.375V37.8125L-0.000244141 34.375H3.43726Z" fill="#001155"/>
<path d="M27.4998 37.8125V41.25L24.0623 37.8125H27.4998Z" fill="#001155"/>
<path d="M24.0623 37.8125V41.25L20.6248 37.8125H24.0623Z" fill="#001155"/>
<path d="M20.6248 37.8125V41.25L17.1873 37.8125H20.6248Z" fill="#001155"/>
<path d="M17.1873 37.8125V41.25L13.7498 37.8125H17.1873Z" fill="#001155"/>
<path d="M13.7498 37.8125V41.25L10.3123 37.8125H13.7498Z" fill="#001155"/>
<path d="M10.3123 37.8125V41.25L6.87476 37.8125H10.3123Z" fill="#001155"/>
<path d="M6.87476 37.8125V41.25L3.43726 37.8125H6.87476Z" fill="#001155"/>
<path d="M3.43726 37.8125V41.25L-0.000244141 37.8125H3.43726Z" fill="#001155"/>
<path d="M27.4998 41.25V44.6875L24.0623 41.25H27.4998Z" fill="#001155"/>
<path d="M24.0623 41.25V44.6875L20.6248 41.25H24.0623Z" fill="#001155"/>
<path d="M20.6248 41.25V44.6875L17.1873 41.25H20.6248Z" fill="#001155"/>
<path d="M17.1873 41.25V44.6875L13.7498 41.25H17.1873Z" fill="#001155"/>
<path d="M13.7498 41.25V44.6875L10.3123 41.25H13.7498Z" fill="#001155"/>
<path d="M10.3123 41.25V44.6875L6.87476 41.25H10.3123Z" fill="#001155"/>
<path d="M6.87476 41.25V44.6875L3.43726 41.25H6.87476Z" fill="#001155"/>
<path d="M3.43726 41.25V44.6875L-0.000244141 41.25H3.43726Z" fill="#001155"/>
<path d="M27.4998 44.6875V48.125L24.0623 44.6875H27.4998Z" fill="#001155"/>
<path d="M24.0623 44.6875V48.125L20.6248 44.6875H24.0623Z" fill="#001155"/>
<path d="M20.6248 44.6875V48.125L17.1873 44.6875H20.6248Z" fill="#001155"/>
<path d="M17.1873 44.6875V48.125L13.7498 44.6875H17.1873Z" fill="#001155"/>
<path d="M13.7498 44.6875V48.125L10.3123 44.6875H13.7498Z" fill="#001155"/>
<path d="M10.3123 44.6875V48.125L6.87476 44.6875H10.3123Z" fill="#001155"/>
<path d="M6.87476 44.6875V48.125L3.43726 44.6875H6.87476Z" fill="#001155"/>
<path d="M3.43726 44.6875V48.125L-0.000244141 44.6875H3.43726Z" fill="#001155"/>
<path d="M27.4998 48.125V51.5625L24.0623 48.125H27.4998Z" fill="#001155"/>
<path d="M24.0623 48.125V51.5625L20.6248 48.125H24.0623Z" fill="#001155"/>
<path d="M20.6248 48.125V51.5625L17.1873 48.125H20.6248Z" fill="#001155"/>
<path d="M17.1873 48.125V51.5625L13.7498 48.125H17.1873Z" fill="#001155"/>
<path d="M13.7498 48.125V51.5625L10.3123 48.125H13.7498Z" fill="#001155"/>
<path d="M10.3123 48.125V51.5625L6.87476 48.125H10.3123Z" fill="#001155"/>
<path d="M6.87476 48.125V51.5625L3.43726 48.125H6.87476Z" fill="#001155"/>
<path d="M3.43726 48.125V51.5625L-0.000244141 48.125H3.43726Z" fill="#001155"/>
<path d="M27.4998 51.5625V55L24.0623 51.5625H27.4998Z" fill="#001155"/>
<path d="M24.0623 51.5625V55L20.6248 51.5625H24.0623Z" fill="#001155"/>
<path d="M20.6248 51.5625V55L17.1873 51.5625H20.6248Z" fill="#001155"/>
<path d="M17.1873 51.5625V55L13.7498 51.5625H17.1873Z" fill="#001155"/>
<path d="M13.7498 51.5625V55L10.3123 51.5625H13.7498Z" fill="#001155"/>
<path d="M10.3123 51.5625V55L6.87476 51.5625H10.3123Z" fill="#001155"/>
<path d="M6.87476 51.5625V55L3.43726 51.5625H6.87476Z" fill="#001155"/>
<path d="M3.43726 51.5625V55L-0.000244141 51.5625H3.43726Z" fill="#001155"/>
<rect x="82.5" width="27.5" height="27.5" transform="rotate(90 82.5 0)" fill="#0A30CB"/>
<rect x="82.5" width="13.75" height="27.5" transform="rotate(90 82.5 0)" fill="#001155"/>
<rect x="82.5" width="13.75" height="27.5" transform="rotate(90 82.5 0)" fill="#001155"/>
<rect width="27.5" height="27.5" transform="matrix(0 -1 -1 0 54.9998 27.5)" fill="#123ADE"/>
<path d="M41.2498 -0.000253677C41.2498 7.59367 35.0937 13.7498 27.4997 13.7498V-0.000253677H41.2498Z" fill="#001155"/>
<rect x="27.5" y="27.4998" width="27.5" height="27.5" transform="rotate(180 27.5 27.4998)" fill="#123ADE"/>
<path d="M13.75 -0.000253677C13.75 7.59367 19.9061 13.7498 27.5 13.7498V-0.000253677H13.75Z" fill="#001155"/>
</svg>
