<svg width="834" height="1005" viewBox="0 0 834 1005" fill="none" xmlns="http://www.w3.org/2000/svg">
<g clip-path="url(#clip0_103_137)">
<rect x="628" y="861.571" width="102.786" height="205.571" transform="rotate(-90 628 861.571)" fill="#001155"/>
<path d="M833.571 758.786C776.804 758.786 730.786 712.767 730.786 656H833.571V758.786Z" fill="#032095"/>
<path d="M0.00012207 375V391L16.0001 375H0.00012207Z" fill="#001155"/>
<path d="M16 375V391L32 375H16Z" fill="#001155"/>
<path d="M32.0002 375V391L48.0002 375H32.0002Z" fill="#001155"/>
<path d="M48.0001 375V391L64.0001 375H48.0001Z" fill="#001155"/>
<path d="M64.0002 375V391L80.0002 375H64.0002Z" fill="#001155"/>
<path d="M80.0001 375V391L96.0001 375H80.0001Z" fill="#001155"/>
<path d="M96 375V391L112 375H96Z" fill="#001155"/>
<path d="M112 375V391L128 375H112Z" fill="#001155"/>
<path d="M0.00012207 391V407L16.0001 391H0.00012207Z" fill="#001155"/>
<path d="M16 391V407L32 391H16Z" fill="#001155"/>
<path d="M32.0002 391V407L48.0002 391H32.0002Z" fill="#001155"/>
<path d="M48.0001 391V407L64.0001 391H48.0001Z" fill="#001155"/>
<path d="M64.0002 391V407L80.0002 391H64.0002Z" fill="#001155"/>
<path d="M80.0001 391V407L96.0001 391H80.0001Z" fill="#001155"/>
<path d="M96 391V407L112 391H96Z" fill="#001155"/>
<path d="M0.00012207 407V423L16.0001 407H0.00012207Z" fill="#001155"/>
<path d="M16 407V423L32 407H16Z" fill="#001155"/>
<path d="M32.0002 407V423L48.0002 407H32.0002Z" fill="#001155"/>
<path d="M48.0001 407V423L64.0001 407H48.0001Z" fill="#001155"/>
<path d="M64.0002 407V423L80.0002 407H64.0002Z" fill="#001155"/>
<path d="M80.0001 407V423L96.0001 407H80.0001Z" fill="#001155"/>
<path d="M0.00012207 423V439L16.0001 423H0.00012207Z" fill="#001155"/>
<path d="M16 423V439L32 423H16Z" fill="#001155"/>
<path d="M32.0002 423V439L48.0002 423H32.0002Z" fill="#001155"/>
<path d="M48.0001 423V439L64.0001 423H48.0001Z" fill="#001155"/>
<path d="M64.0002 423V439L80.0002 423H64.0002Z" fill="#001155"/>
<path d="M0.00012207 439V455L16.0001 439H0.00012207Z" fill="#001155"/>
<path d="M16 439V455L32 439H16Z" fill="#001155"/>
<path d="M32.0002 439V455L48.0002 439H32.0002Z" fill="#001155"/>
<path d="M48.0001 439V455L64.0001 439H48.0001Z" fill="#001155"/>
<path d="M0.00012207 455V471L16.0001 455H0.00012207Z" fill="#001155"/>
<path d="M16 455V471L32 455H16Z" fill="#001155"/>
<path d="M32.0002 455V471L48.0002 455H32.0002Z" fill="#001155"/>
<path d="M0.00012207 471V487L16.0001 471H0.00012207Z" fill="#001155"/>
<path d="M16 471V487L32 471H16Z" fill="#001155"/>
<path d="M0.00012207 487V503L16.0001 487H0.00012207Z" fill="#001155"/>
<path d="M715 0C688.49 0 667 21.4903 667 48L763 48C763 21.4903 741.51 0 715 0Z" fill="#032095"/>
<path d="M715 95.9999C688.49 95.9999 667 74.5096 667 48H763C763 74.5096 741.51 95.9999 715 95.9999Z" fill="#0A30CB"/>
</g>
<defs>
<clipPath id="clip0_103_137">
<rect width="834" height="1005" fill="white"/>
</clipPath>
</defs>
</svg>
