<svg width="64" height="64" viewBox="0 0 64 64" fill="none" xmlns="http://www.w3.org/2000/svg">
<rect width="192.5" height="110" transform="translate(-64.25 -23)" fill="#001155"/>
<rect x="18.25" y="-23" width="27.5" height="27.5" transform="rotate(90 18.25 -23)" fill="#123ADE"/>
<path d="M18.25 -23C18.25 -19.3887 17.5387 -15.8127 16.1567 -12.4762C14.7747 -9.13976 12.7491 -6.10818 10.1954 -3.55457C7.64184 -1.00096 4.61026 1.02468 1.2738 2.40669C-2.06265 3.78869 -5.63865 4.5 -9.25 4.5L-9.25 -23H18.25Z" fill="#032095"/>
<rect x="18.25" y="-23" width="27.5" height="27.5" fill="#123ADE"/>
<path d="M32 4.50001C32 -3.09391 38.1561 -9.25 45.75 -9.25V4.50001H32Z" fill="#001155"/>
<path d="M32 4.50001C32 -3.09391 25.8439 -9.25 18.25 -9.25V4.50001H32Z" fill="#032095"/>
<rect width="27.5" height="27.5" transform="matrix(1 0 0 -1 45.7502 4.5)" fill="#123ADE"/>
<path d="M45.7502 -9.24975C45.7502 -16.8437 51.9063 -22.9998 59.5003 -22.9998V4.50026C51.9063 4.50026 45.7502 -1.65583 45.7502 -9.24975Z" fill="#032095"/>
<path d="M73.2502 -9.24999C73.2502 -16.8439 67.0942 -23 59.5002 -23L59.5002 4.50002C67.0942 4.50002 73.2502 -1.65607 73.2502 -9.24999Z" fill="#032095"/>
<rect x="-9.25" y="32" width="27.5" height="27.5" transform="rotate(-90 -9.25 32)" fill="#123ADE"/>
<rect x="18.25" y="32" width="27.5" height="27.5" transform="rotate(-90 18.25 32)" fill="#123ADE"/>
<path d="M45.75 32V28.5625L42.3125 32H45.75Z" fill="#001155"/>
<path d="M42.3125 32V28.5625L38.875 32H42.3125Z" fill="#001155"/>
<path d="M38.875 32V28.5625L35.4375 32H38.875Z" fill="#001155"/>
<path d="M35.4375 32V28.5625L32 32H35.4375Z" fill="#001155"/>
<path d="M32 32V28.5625L28.5625 32H32Z" fill="#001155"/>
<path d="M28.5625 32V28.5625L25.125 32H28.5625Z" fill="#001155"/>
<path d="M25.125 32V28.5625L21.6875 32H25.125Z" fill="#001155"/>
<path d="M21.6875 32V28.5625L18.25 32H21.6875Z" fill="#001155"/>
<path d="M45.75 28.5625V25.125L42.3125 28.5625H45.75Z" fill="#001155"/>
<path d="M42.3125 28.5625V25.125L38.875 28.5625H42.3125Z" fill="#001155"/>
<path d="M38.875 28.5625V25.125L35.4375 28.5625H38.875Z" fill="#001155"/>
<path d="M35.4375 28.5625V25.125L32 28.5625H35.4375Z" fill="#001155"/>
<path d="M32 28.5625V25.125L28.5625 28.5625H32Z" fill="#001155"/>
<path d="M28.5625 28.5625V25.125L25.125 28.5625H28.5625Z" fill="#001155"/>
<path d="M25.125 28.5625V25.125L21.6875 28.5625H25.125Z" fill="#001155"/>
<path d="M45.75 25.125V21.6875L42.3125 25.125H45.75Z" fill="#001155"/>
<path d="M42.3125 25.125V21.6875L38.875 25.125H42.3125Z" fill="#001155"/>
<path d="M38.875 25.125V21.6875L35.4375 25.125H38.875Z" fill="#001155"/>
<path d="M35.4375 25.125V21.6875L32 25.125H35.4375Z" fill="#001155"/>
<path d="M32 25.125V21.6875L28.5625 25.125H32Z" fill="#001155"/>
<path d="M28.5625 25.125V21.6875L25.125 25.125H28.5625Z" fill="#001155"/>
<path d="M45.75 21.6875V18.25L42.3125 21.6875H45.75Z" fill="#001155"/>
<path d="M42.3125 21.6875V18.25L38.875 21.6875H42.3125Z" fill="#001155"/>
<path d="M38.875 21.6875V18.25L35.4375 21.6875H38.875Z" fill="#001155"/>
<path d="M35.4375 21.6875V18.25L32 21.6875H35.4375Z" fill="#001155"/>
<path d="M32 21.6875V18.25L28.5625 21.6875H32Z" fill="#001155"/>
<path d="M45.75 18.25V14.8125L42.3125 18.25H45.75Z" fill="#001155"/>
<path d="M42.3125 18.25V14.8125L38.875 18.25H42.3125Z" fill="#001155"/>
<path d="M38.875 18.25V14.8125L35.4375 18.25H38.875Z" fill="#001155"/>
<path d="M35.4375 18.25V14.8125L32 18.25H35.4375Z" fill="#001155"/>
<path d="M45.75 14.8125V11.375L42.3125 14.8125H45.75Z" fill="#001155"/>
<path d="M42.3125 14.8125V11.375L38.875 14.8125H42.3125Z" fill="#001155"/>
<path d="M38.875 14.8125V11.375L35.4375 14.8125H38.875Z" fill="#001155"/>
<path d="M45.75 11.375V7.9375L42.3125 11.375H45.75Z" fill="#001155"/>
<path d="M42.3125 11.375V7.9375L38.875 11.375H42.3125Z" fill="#001155"/>
<path d="M45.75 7.9375V4.5L42.3125 7.9375H45.75Z" fill="#001155"/>
<rect x="45.75" y="32" width="27.5" height="27.5" transform="rotate(-90 45.75 32)" fill="#0A30CB"/>
<rect x="-9.25" y="59.5" width="27.5" height="27.5" transform="rotate(-90 -9.25 59.5)" fill="#123ADE"/>
<path d="M-9.25002 32C-9.25002 35.6113 -8.53871 39.1873 -7.1567 42.5238C-5.7747 45.8602 -3.74906 48.8918 -1.19545 51.4454C1.35816 53.999 4.38974 56.0247 7.7262 57.4067C11.0627 58.7887 14.6386 59.5 18.25 59.5L18.25 32H-9.25002Z" fill="#0A30CB"/>
<rect width="27.5" height="27.5" transform="matrix(0 -1 -1 0 45.75 59.5)" fill="#001155"/>
<path d="M18.25 59.5V32L45.75 59.5H18.25Z" fill="#001155"/>
<rect width="27.5" height="27.5" transform="matrix(0 1 1 0 45.75 32)" fill="#123ADE"/>
<path d="M59.5 45.75C67.0939 45.75 73.25 51.9061 73.25 59.5H45.75C45.75 51.9061 51.9061 45.75 59.5 45.75Z" fill="#032095"/>
<path d="M59.5 45.75C67.0939 45.75 73.25 39.5939 73.25 32L45.75 32C45.75 39.5939 51.9061 45.75 59.5 45.75Z" fill="#0A30CB"/>
<rect x="-9.25" y="87" width="27.5" height="27.5" transform="rotate(-90 -9.25 87)" fill="#0A30CB"/>
<path d="M18.25 87V59.5L-9.25 87H18.25Z" fill="#001155"/>
<rect x="18.25" y="86.9998" width="27.5" height="27.5" transform="rotate(-90 18.25 86.9998)" fill="#001155"/>
<path d="M18.25 87C18.25 83.3887 18.9613 79.8127 20.3433 76.4762C21.7253 73.1398 23.7509 70.1082 26.3046 67.5546C28.8582 65.001 31.8897 62.9753 35.2262 61.5933C38.5627 60.2113 42.1386 59.5 45.75 59.5L45.75 87H18.25Z" fill="#032095"/>
<rect x="45.75" y="87" width="27.5" height="27.5" transform="rotate(-90 45.75 87)" fill="#0A30CB"/>
</svg>
