<svg width="431" height="887" viewBox="0 0 431 887" fill="none" xmlns="http://www.w3.org/2000/svg">
<g clip-path="url(#clip0_107_621)">
<path d="M362 0C346.536 0 334 12.536 334 28L390 28C390 12.536 377.464 0 362 0Z" fill="#032095"/>
<path d="M362 56.0001C346.536 56.0001 334 43.464 334 28H390C390 43.464 377.464 56.0001 362 56.0001Z" fill="#0A30CB"/>
<path d="M-7.99982 262V278L8.00018 262H-7.99982Z" fill="#001155"/>
<path d="M8.00012 262V278L24.0001 262H8.00012Z" fill="#001155"/>
<path d="M24.0002 262V278L40.0002 262H24.0002Z" fill="#001155"/>
<path d="M40.0001 262V278L56.0001 262H40.0001Z" fill="#001155"/>
<path d="M56.0001 262V278L72.0001 262H56.0001Z" fill="#001155"/>
<path d="M71.9999 262V278L87.9999 262H71.9999Z" fill="#001155"/>
<path d="M-7.99982 278V294L8.00018 278H-7.99982Z" fill="#001155"/>
<path d="M8.00012 278V294L24.0001 278H8.00012Z" fill="#001155"/>
<path d="M24.0002 278V294L40.0002 278H24.0002Z" fill="#001155"/>
<path d="M40.0001 278V294L56.0001 278H40.0001Z" fill="#001155"/>
<path d="M56.0001 278V294L72.0001 278H56.0001Z" fill="#001155"/>
<path d="M-7.99982 294V310L8.00018 294H-7.99982Z" fill="#001155"/>
<path d="M8.00012 294V310L24.0001 294H8.00012Z" fill="#001155"/>
<path d="M24.0002 294V310L40.0002 294H24.0002Z" fill="#001155"/>
<path d="M40.0001 294V310L56.0001 294H40.0001Z" fill="#001155"/>
<path d="M-7.99982 310V326L8.00018 310H-7.99982Z" fill="#001155"/>
<path d="M8.00012 310V326L24.0001 310H8.00012Z" fill="#001155"/>
<path d="M24.0002 310V326L40.0002 310H24.0002Z" fill="#001155"/>
<path d="M-7.99982 326V342L8.00018 326H-7.99982Z" fill="#001155"/>
<path d="M8.00012 326V342L24.0001 326H8.00012Z" fill="#001155"/>
<path d="M-7.99982 342V358L8.00018 342H-7.99982Z" fill="#001155"/>
<rect x="334" y="655.428" width="64.2142" height="128.428" transform="rotate(-90 334 655.428)" fill="#001155"/>
<path d="M462.428 591.214C426.963 591.214 398.214 562.465 398.214 527H462.428V591.214Z" fill="#032095"/>
</g>
<defs>
<clipPath id="clip0_107_621">
<rect width="431" height="887" fill="white"/>
</clipPath>
</defs>
</svg>
