<svg width="837" height="821" viewBox="0 0 837 821" fill="none" xmlns="http://www.w3.org/2000/svg">
<g clip-path="url(#clip0_103_2)">
<path d="M128 54V38L112 54H128Z" fill="#0A30CB"/>
<path d="M112 54V38L95.9999 54H112Z" fill="#0A30CB"/>
<path d="M95.9998 54V38L79.9998 54H95.9998Z" fill="#0A30CB"/>
<path d="M79.9999 54V38L63.9999 54H79.9999Z" fill="#0A30CB"/>
<path d="M63.9998 54V38L47.9998 54H63.9998Z" fill="#0A30CB"/>
<path d="M47.9999 54V38L31.9999 54H47.9999Z" fill="#0A30CB"/>
<path d="M31.9999 54V38L15.9999 54H31.9999Z" fill="#0A30CB"/>
<path d="M16.0001 54V38L6.10352e-05 54H16.0001Z" fill="#0A30CB"/>
<path d="M128 37.9999V21.9999L112 37.9999H128Z" fill="#0A30CB"/>
<path d="M112 37.9999V21.9999L95.9999 37.9999H112Z" fill="#0A30CB"/>
<path d="M95.9998 37.9999V21.9999L79.9998 37.9999H95.9998Z" fill="#0A30CB"/>
<path d="M79.9999 37.9999V21.9999L63.9999 37.9999H79.9999Z" fill="#0A30CB"/>
<path d="M63.9998 37.9999V21.9999L47.9998 37.9999H63.9998Z" fill="#0A30CB"/>
<path d="M47.9999 37.9999V21.9999L31.9999 37.9999H47.9999Z" fill="#0A30CB"/>
<path d="M31.9999 37.9999V21.9999L15.9999 37.9999H31.9999Z" fill="#0A30CB"/>
<path d="M128 21.9999V5.99994L112 21.9999H128Z" fill="#0A30CB"/>
<path d="M112 21.9999V5.99994L95.9999 21.9999H112Z" fill="#0A30CB"/>
<path d="M95.9998 21.9999V5.99994L79.9998 21.9999H95.9998Z" fill="#0A30CB"/>
<path d="M79.9999 21.9999V5.99994L63.9999 21.9999H79.9999Z" fill="#0A30CB"/>
<path d="M63.9998 21.9999V5.99994L47.9998 21.9999H63.9998Z" fill="#0A30CB"/>
<path d="M47.9999 21.9999V5.99994L31.9999 21.9999H47.9999Z" fill="#0A30CB"/>
<path d="M128 6.00003V-9.99997L112 6.00003L128 6.00003Z" fill="#0A30CB"/>
<path d="M112 6.00003V-9.99997L95.9999 6.00003L112 6.00003Z" fill="#0A30CB"/>
<path d="M95.9998 6.00003V-9.99997L79.9998 6.00003L95.9998 6.00003Z" fill="#0A30CB"/>
<path d="M79.9999 6.00003V-9.99997L63.9999 6.00003L79.9999 6.00003Z" fill="#0A30CB"/>
<path d="M63.9998 6.00003V-9.99997L47.9998 6.00003L63.9998 6.00003Z" fill="#0A30CB"/>
<rect width="102.786" height="205.571" transform="matrix(0 -1 -1 0 939.571 187.572)" fill="#123ADE"/>
<path d="M734 84.7858C790.767 84.7858 836.786 38.7671 836.786 -17.9999H734V84.7858Z" fill="#032095"/>
<path d="M384 -56C435.915 -56 478 -13.9148 478 38H384V-56Z" fill="#0A30CB"/>
</g>
<defs>
<clipPath id="clip0_103_2">
<rect width="837" height="821" fill="white"/>
</clipPath>
</defs>
</svg>
