<svg width="1440" height="614" viewBox="0 0 1440 614" fill="none" xmlns="http://www.w3.org/2000/svg">
<g clip-path="url(#clip0_106_518)">
<rect width="102.786" height="205.571" transform="matrix(0 -1 -1 0 1439.57 205.572)" fill="#123ADE"/>
<path d="M1234 102.786C1290.77 102.786 1336.79 56.7671 1336.79 8.39233e-05H1234V102.786Z" fill="#032095"/>
<path d="M830 0C881.915 0 924 42.0852 924 94H830V0Z" fill="#0A30CB"/>
<path d="M128 80V64L112 80H128Z" fill="#0A30CB"/>
<path d="M112 80V64L96 80H112Z" fill="#0A30CB"/>
<path d="M95.9998 80V64L79.9998 80H95.9998Z" fill="#0A30CB"/>
<path d="M79.9999 80V64L63.9999 80H79.9999Z" fill="#0A30CB"/>
<path d="M63.9998 80V64L47.9998 80H63.9998Z" fill="#0A30CB"/>
<path d="M47.9999 80V64L31.9999 80H47.9999Z" fill="#0A30CB"/>
<path d="M32 80V64L16 80H32Z" fill="#0A30CB"/>
<path d="M16 80V64L3.05176e-05 80H16Z" fill="#0A30CB"/>
<path d="M128 63.9999V47.9999L112 63.9999H128Z" fill="#0A30CB"/>
<path d="M112 63.9999V47.9999L96 63.9999H112Z" fill="#0A30CB"/>
<path d="M95.9998 63.9999V47.9999L79.9998 63.9999H95.9998Z" fill="#0A30CB"/>
<path d="M79.9999 63.9999V47.9999L63.9999 63.9999H79.9999Z" fill="#0A30CB"/>
<path d="M63.9998 63.9999V47.9999L47.9998 63.9999H63.9998Z" fill="#0A30CB"/>
<path d="M47.9999 63.9999V47.9999L31.9999 63.9999H47.9999Z" fill="#0A30CB"/>
<path d="M32 63.9999V47.9999L16 63.9999H32Z" fill="#0A30CB"/>
<path d="M128 47.9999V31.9999L112 47.9999H128Z" fill="#0A30CB"/>
<path d="M112 47.9999V31.9999L96 47.9999H112Z" fill="#0A30CB"/>
<path d="M95.9998 47.9999V31.9999L79.9998 47.9999H95.9998Z" fill="#0A30CB"/>
<path d="M79.9999 47.9999V31.9999L63.9999 47.9999H79.9999Z" fill="#0A30CB"/>
<path d="M63.9998 47.9999V31.9999L47.9998 47.9999H63.9998Z" fill="#0A30CB"/>
<path d="M47.9999 47.9999V31.9999L31.9999 47.9999H47.9999Z" fill="#0A30CB"/>
<path d="M128 32V16L112 32H128Z" fill="#0A30CB"/>
<path d="M112 32V16L96 32H112Z" fill="#0A30CB"/>
<path d="M95.9998 32V16L79.9998 32H95.9998Z" fill="#0A30CB"/>
<path d="M79.9999 32V16L63.9999 32H79.9999Z" fill="#0A30CB"/>
<path d="M63.9998 32V16L47.9998 32H63.9998Z" fill="#0A30CB"/>
<path d="M128 16.0001V0.00012207L112 16.0001H128Z" fill="#0A30CB"/>
<path d="M112 16.0001V0.00012207L96 16.0001H112Z" fill="#0A30CB"/>
<path d="M95.9998 16.0001V0.00012207L79.9998 16.0001H95.9998Z" fill="#0A30CB"/>
<path d="M79.9999 16.0001V0.00012207L63.9999 16.0001H79.9999Z" fill="#0A30CB"/>
</g>
<defs>
<clipPath id="clip0_106_518">
<rect width="1440" height="614" fill="white"/>
</clipPath>
</defs>
</svg>
