<svg width="490" height="747" viewBox="0 0 490 747" fill="none" xmlns="http://www.w3.org/2000/svg">
<g clip-path="url(#clip0_104_230)">
<rect width="31.7857" height="72.2738" transform="matrix(0 -1 -1 0 509.977 56.5715)" fill="#123ADE"/>
<path d="M437.703 24.7858C457.661 24.7858 473.84 10.5548 473.84 -6.99995H437.703V24.7858Z" fill="#032095"/>
<path d="M45.4755 54V38L27.2852 54H45.4755Z" fill="#0A30CB"/>
<path d="M27.2853 54V38L9.09508 54H27.2853Z" fill="#0A30CB"/>
<path d="M9.09493 54V38L-9.09533 54H9.09493Z" fill="#0A30CB"/>
<path d="M45.4755 37.9999V21.9999L27.2852 37.9999H45.4755Z" fill="#0A30CB"/>
<path d="M27.2853 37.9999V21.9999L9.09508 37.9999H27.2853Z" fill="#0A30CB"/>
<path d="M9.09493 37.9999V21.9999L-9.09533 37.9999H9.09493Z" fill="#0A30CB"/>
<path d="M45.4755 22V5.99995L27.2852 22H45.4755Z" fill="#0A30CB"/>
<path d="M27.2853 22V5.99995L9.09508 22H27.2853Z" fill="#0A30CB"/>
<path d="M9.09493 22V5.99995L-9.09533 22H9.09493Z" fill="#0A30CB"/>
<path d="M45.4755 6.00005V-9.99995L27.2852 6.00005L45.4755 6.00005Z" fill="#0A30CB"/>
<path d="M27.2853 6.00005V-9.99995L9.09508 6.00005L27.2853 6.00005Z" fill="#0A30CB"/>
<path d="M9.09493 6.00005V-9.99995L-9.09533 6.00005L9.09493 6.00005Z" fill="#0A30CB"/>
<path d="M198 -61C249.915 -61 292 -18.9148 292 33H198V-61Z" fill="#0A30CB"/>
</g>
<defs>
<clipPath id="clip0_104_230">
<rect width="490" height="747" fill="white"/>
</clipPath>
</defs>
</svg>
