<svg width="178" height="32" viewBox="0 0 178 32" fill="none" xmlns="http://www.w3.org/2000/svg">
<path d="M45.528 25.288C40.2 25.288 36.864 21.76 36.864 16.144C36.864 10.6 40.392 6.952 45.696 6.952C50.136 6.952 53.328 9.496 53.88 13.48H49.776C49.248 11.704 47.736 10.696 45.6 10.696C42.72 10.696 40.968 12.736 40.968 16.12C40.968 19.456 42.744 21.544 45.6 21.544C47.784 21.544 49.392 20.464 49.872 18.712H53.904C53.28 22.672 49.968 25.288 45.528 25.288ZM55.4003 18.976C55.4003 15.184 58.1842 12.64 62.0243 12.64C65.8403 12.64 68.6243 15.184 68.6243 18.976C68.6243 22.768 65.8403 25.288 62.0243 25.288C58.1842 25.288 55.4003 22.768 55.4003 18.976ZM59.1203 18.952C59.1203 20.776 60.2963 21.976 62.0243 21.976C63.7283 21.976 64.9043 20.776 64.9043 18.952C64.9043 17.152 63.7283 15.952 62.0243 15.952C60.2963 15.952 59.1203 17.152 59.1203 18.952ZM78.4538 13H82.1498V25H78.6698L78.4298 23.656C77.6858 24.64 76.1978 25.312 74.7578 25.312C72.0218 25.312 70.3418 23.488 70.3418 20.536V13H74.0378V19.192C74.0378 21.16 74.7098 22.024 76.2218 22.024C77.8058 22.024 78.4538 21.208 78.4538 19.24V13ZM93.1793 13V16.48H92.0033C89.8913 16.48 88.6193 17.416 88.6193 19.792V25H84.9233V13.024H88.4033L88.5953 14.8C89.0993 13.624 90.1553 12.832 91.7633 12.832C92.1953 12.832 92.6753 12.88 93.1793 13ZM94.1843 21.208H97.6883C97.7363 22.048 98.3603 22.552 99.4883 22.552C100.64 22.552 101.168 22.144 101.168 21.52C101.168 21.16 100.976 20.776 100.088 20.584L97.8803 20.104C95.6723 19.624 94.5923 18.664 94.5923 16.552C94.5923 14.056 96.7283 12.616 99.6083 12.616C102.392 12.616 104.336 14.248 104.336 16.672H100.832C100.832 15.856 100.328 15.304 99.4403 15.304C98.6003 15.304 98.0723 15.736 98.0723 16.384C98.0723 16.936 98.5283 17.248 99.3683 17.44L101.6 17.92C103.568 18.352 104.648 19.264 104.648 21.184C104.648 23.752 102.464 25.312 99.3443 25.312C96.1763 25.312 94.1843 23.632 94.1843 21.208ZM112.148 25.312C108.524 25.312 105.932 22.672 105.932 18.976C105.932 15.232 108.452 12.616 112.076 12.616C115.844 12.616 118.196 15.088 118.196 19V19.936L109.484 19.984C109.7 21.568 110.588 22.312 112.22 22.312C113.612 22.312 114.596 21.808 114.86 20.944H118.244C117.812 23.608 115.436 25.312 112.148 25.312ZM112.1 15.616C110.636 15.616 109.82 16.264 109.532 17.704H114.524C114.524 16.432 113.588 15.616 112.1 15.616ZM124.608 25H120.84V7.24H124.608L129.888 20.488L135.192 7.24H139.008V25H135.24V21.28C135.24 17.44 135.24 16.6 135.432 15.28L131.664 25H128.112L124.368 15.28C124.584 16.6 124.608 18.088 124.608 20.032V25ZM144.075 11.128C142.899 11.128 141.963 10.192 141.963 9.016C141.963 7.84 142.899 6.928 144.075 6.928C145.227 6.928 146.163 7.84 146.163 9.016C146.163 10.192 145.227 11.128 144.075 11.128ZM142.251 25V13H145.947V25H142.251ZM152.416 25H148.72V13H152.2L152.44 14.248C153.184 13.216 154.552 12.616 156.112 12.616C158.968 12.616 160.624 14.44 160.624 17.584V25H156.928V18.472C156.928 16.96 156.088 15.976 154.816 15.976C153.352 15.976 152.416 16.936 152.416 18.424V25ZM168.315 25.312C164.859 25.312 162.627 22.864 162.627 19.072C162.627 15.256 164.907 12.616 168.555 12.616C170.043 12.616 171.459 13.216 172.155 14.104V6.904H175.851V25H172.371L172.179 23.464C171.531 24.568 170.043 25.312 168.315 25.312ZM169.203 21.928C170.931 21.928 172.131 20.728 172.131 18.928C172.131 17.128 170.931 15.928 169.203 15.928C167.451 15.928 166.347 17.152 166.347 18.928C166.347 20.704 167.451 21.928 169.203 21.928Z" fill="#222222"/>
<path d="M21.8782 13.3934L17.7776 5H27.8992L31.9998 13.3934H21.8782Z" fill="#222222"/>
<path d="M27.8994 25.3427L32 16.9492H21.8783L17.7778 25.3427H27.8994Z" fill="#222222"/>
<path d="M10.7177 15.2222L16.051 5H5.33336L2.47955e-05 15.2222H10.7177Z" fill="#222222"/>
<path d="M5.33333 25.4446L0 15.2224H10.7177L16.051 25.4446H5.33333Z" fill="#222222"/>
</svg>
