<svg width="537" height="455" viewBox="0 0 537 455" fill="none" xmlns="http://www.w3.org/2000/svg">
<g clip-path="url(#clip0_52_668)">
<path d="M517.671 372.173H19.3287C8.67102 372.173 0 363.503 0 352.845V292.865H537V352.845C537 363.503 528.329 372.173 517.671 372.173Z" fill="#E6E6E6"/>
<path d="M332.997 362.14H205.914V452.914H332.997V362.14Z" fill="#E6E6E6"/>
<path d="M340.641 441.448H198.27V452.914H340.641V441.448Z" fill="#E6E6E6"/>
<path d="M536.522 318.187H0V13.2643C0 5.95051 5.95051 0 13.2643 0H523.258C530.572 0 536.522 5.95051 536.522 13.2643V318.187Z" fill="#3F3D56"/>
<path d="M523.623 13.855H12.4219V301.465H523.623V13.855Z" fill="white"/>
<path d="M111.422 185.278C115.334 182.045 120.174 181.444 122.231 183.934C124.288 186.424 122.784 191.063 118.869 194.297C117.323 195.61 115.485 196.534 113.509 196.991L96.7583 210.48L90.5959 202.484L107.764 190.035C108.586 188.18 109.84 186.549 111.422 185.278Z" fill="#FFB6B6"/>
<path d="M14.6033 215.713C14.5948 215.116 14.6004 209.913 18.4526 206.624C22.8779 202.846 29.1221 204.375 31.3122 204.911C36.3713 206.15 36.7863 208.321 41.5374 210.55C50.4262 214.722 39.2888 212.587 44.5779 211.249C46.4087 210.786 72.7473 208.96 79.3035 204.924C92.0544 197.076 100.742 192.317 100.742 192.317L106.422 203.676C106.422 203.676 98.2093 215.096 86.6507 223.556C74.7943 232.234 68.866 236.572 59.8567 238.249C59.0808 238.393 39.9998 241.651 24.6315 230.169C21.1261 227.55 14.7033 222.752 14.6033 215.713Z" fill="#123ADE"/>
<path d="M32.2215 186.824C43.1486 186.824 52.0068 177.966 52.0068 167.039C52.0068 156.112 43.1486 147.253 32.2215 147.253C21.2944 147.253 12.4363 156.112 12.4363 167.039C12.4363 177.966 21.2944 186.824 32.2215 186.824Z" fill="#FFB6B6"/>
<path d="M187.172 299.964L166.796 279.106L156.278 290.078L171.459 310.077L186.517 311.799L187.172 299.964Z" fill="#FFB6B6"/>
<path d="M70.824 260.852C72.0158 260.951 75.8031 261.709 79.4231 259.718C81.8936 258.358 83.1607 256.337 83.5886 255.695C88.8977 247.721 109.275 235.287 127.563 234.522C131.705 234.349 134.431 234.829 136.909 236.12C140.422 237.952 141.825 240.575 146.283 246.72C148.722 250.082 151.42 253.249 153.888 256.589C168.338 276.143 173.816 277.679 173.256 283.948C172.635 290.903 165.133 297.502 160.148 296.741C158.106 296.429 157.315 295.009 154.587 292.135C146.588 283.707 143.279 285.264 137.584 278.809C130.935 271.273 131.806 265.024 128.337 264.783C125.12 264.559 123.753 269.89 116.886 276.971C113.743 280.211 111.505 281.698 104.688 286.428C78.1392 304.846 77.7155 306.14 72.3577 307.609C70.0136 308.251 53.3759 312.813 47.4491 305.554C38.1744 294.195 60.0852 259.959 70.824 260.852Z" fill="#2F2E41"/>
<path d="M180.943 304.677C182.441 304.004 184.194 303.217 184.757 301.408C185.139 300.184 184.919 298.674 184.131 297.631C183.221 296.427 181.874 296.269 181.929 296.056C182.012 295.731 185.196 295.858 188.692 297.094C189.351 297.327 192.339 298.419 196.141 301.386C199.186 303.764 198.776 304.241 200.686 305.612C206.548 309.82 212.047 306.503 215.219 310.45C216.443 311.973 216.965 314.136 216.45 315.884C215.415 319.396 210.384 320.604 207.634 321.228C201.012 322.73 195.999 321.504 190.765 320.622C172.964 317.622 162.963 320.354 161.624 316.23C161.371 315.45 161.782 315.516 163.155 309.789C164.509 304.136 164.465 302.583 165.619 302.13C167.355 301.449 168.521 304.549 172.896 305.609C176.773 306.549 179.972 305.113 180.943 304.677Z" fill="#2F2E41"/>
<path d="M150.947 368.196L145.799 339.496L130.935 342.668L132.266 367.74L143.759 377.621L150.947 368.196Z" fill="#FFB6B6"/>
<path d="M76.6374 270.499C77.568 271.25 80.2757 274.004 84.3895 274.389C87.197 274.652 89.3803 273.691 90.0953 273.399C98.9658 269.783 122.809 270.937 138.372 280.573C141.896 282.756 143.882 284.683 145.207 287.143C147.086 290.632 146.773 293.59 147.011 301.179C147.142 305.33 147.596 309.466 147.763 313.615C148.739 337.91 152.409 342.256 148.426 347.129C144.006 352.536 134.093 353.784 130.395 350.354C128.881 348.949 129.024 347.33 128.381 343.42C126.494 331.955 122.882 331.385 121.794 322.846C120.525 312.876 124.754 308.195 122.019 306.047C119.483 304.056 115.359 307.699 105.699 309.702C101.28 310.619 98.5932 310.592 90.2963 310.677C57.9862 311.009 56.9087 311.842 51.6506 310.049C49.35 309.265 33.0218 303.696 32.1938 294.362C30.8981 279.754 68.2527 263.73 76.6374 270.499Z" fill="#2F2E41"/>
<path d="M143.146 368.598C144.764 368.882 146.655 369.215 148.138 368.035C149.141 367.236 149.807 365.863 149.74 364.557C149.663 363.051 148.638 362.163 148.803 362.018C149.054 361.796 151.617 363.689 153.816 366.674C154.231 367.238 156.09 369.819 157.569 374.409C158.754 378.087 158.147 378.251 158.957 380.458C161.445 387.232 167.857 387.575 168.266 392.622C168.424 394.57 167.641 396.652 166.233 397.81C163.405 400.134 158.563 398.309 155.938 397.281C149.614 394.805 146.155 390.976 142.319 387.307C129.274 374.829 119.465 371.473 120.673 367.309C120.901 366.521 121.205 366.807 125.557 362.839C129.852 358.922 130.687 357.612 131.896 357.885C133.715 358.297 132.94 361.516 135.964 364.851C138.644 367.805 142.097 368.413 143.146 368.598Z" fill="#2F2E41"/>
<path d="M34.9191 170.821C35.6894 168.066 34.7219 167.062 35.708 165.825C35.708 165.825 36.1048 165.327 39.6523 163.984C38.6057 157.911 39.3894 156.885 39.3894 156.885C40.2926 155.701 42.1019 155.415 43.3337 155.57C45.9388 155.897 46.4 158.252 48.0669 158.199C50.3696 158.126 53.1314 153.517 52.2742 149.522C51.5749 146.263 48.5598 143.843 47.8039 144.263C47.0545 144.679 44.3568 142.843 43.3337 143.211C42.635 143.462 39.3462 143.128 38.6005 143.474C37.7861 143.852 35.4539 146.204 35.231 145.908C33.6815 143.848 33.7145 143.129 32.8155 142.685C31.2225 141.898 29.4907 143.352 26.5046 144.789C20.3605 147.744 18.5614 145.981 15.7234 148.47C14.2898 149.727 13.521 152.13 12.042 156.885C9.97365 163.534 8.93947 166.858 9.93839 170.032C10.9571 173.269 12.4573 172.565 14.6716 177.132C17.1364 182.216 16.2869 185.171 18.6159 186.335C20.416 187.235 23.3087 186.663 24.4009 185.021C26.2709 182.21 21.4376 178.407 23.0862 173.977C24.0981 171.257 27.2198 169.195 29.1341 169.769C31.2987 170.419 31.4581 174.3 32.8155 174.24C33.9779 174.188 34.7849 171.301 34.9191 170.821Z" fill="#2F2E41"/>
<path d="M19.9307 189.754C23.9795 185.214 40.471 189.913 42.0189 197.117C42.6556 200.08 40.3052 201.331 40.9671 204.742C41.9352 209.732 47.4166 209.392 51.4853 214.472C57.2616 221.683 51.3108 228.733 57.7962 240.767C59.182 243.339 60.3501 245.506 62.7924 247.604C68.3967 252.418 73.6124 250.767 76.466 255.23C78.6 258.567 77.7232 262.681 77.5179 263.644C76.6757 267.596 74.3931 268.558 72.7847 271.796C70.1087 277.183 73.1385 281.137 73.3106 287.573C73.5258 295.626 69.2466 306.788 60.6887 310.45C51.0743 314.565 39.4785 307.75 33.8673 300.984C30.519 296.947 29.5471 293.222 28.0823 288.625C21.5357 268.08 17.8372 269.938 12.8309 253.652C7.1077 235.034 5.9826 213.222 12.8309 206.32C13.7386 205.405 16.2366 203.291 17.827 199.483C19.9671 194.36 18.1183 191.786 19.9307 189.754Z" fill="#123ADE"/>
<path d="M79.7553 295.431C82.8944 299.419 83.381 304.271 80.8424 306.269C78.3039 308.266 73.7022 306.652 70.5626 302.662C69.2865 301.085 68.4067 299.225 67.9966 297.239L54.9097 280.172L61.6719 275.014L75.0867 291.66C76.9217 292.526 78.5226 293.819 79.7553 295.431Z" fill="#FFB6B6"/>
<path d="M31.8266 207.055C32.4088 206.925 37.504 205.869 41.5098 208.969C46.1112 212.53 45.8883 218.955 45.8102 221.208C45.6296 226.414 43.5896 227.263 42.3761 232.369C40.1056 241.922 44.4295 250.8 46.8184 255.705C47.6452 257.403 50.3018 262.598 55.5898 268.193C65.8745 279.074 75.051 284.8 75.051 284.8L65.1928 293.562C65.1928 293.562 49.4898 288.776 38.8496 279.187C27.9351 269.351 11.1506 234.548 7.67109 226.07C7.37145 225.34 11.616 237.21 19.7203 219.822C21.5688 215.856 24.9558 208.589 31.8266 207.055Z" fill="#123ADE"/>
<path d="M284.137 198.891L272.366 193.316C277.194 200.053 281.354 210.575 283.581 218.948C287.352 211.149 293.431 201.606 299.448 195.905L287.007 199.105C294.673 161.537 323.505 134.566 356.521 134.566L356.989 133.209C322.502 133.209 291.964 159.806 284.137 198.891Z" fill="#3F3D56"/>
<path d="M338.312 256.134H263.941C260.787 256.134 258.22 253.567 258.22 250.413C258.22 247.259 260.787 244.692 263.941 244.692H338.312C341.466 244.692 344.033 247.259 344.033 250.413C344.033 253.567 341.466 256.134 338.312 256.134Z" fill="#123ADE"/>
<path d="M437.271 256.134H362.9C359.746 256.134 357.18 253.567 357.18 250.413C357.18 247.259 359.746 244.692 362.9 244.692H437.271C440.425 244.692 442.992 247.259 442.992 250.413C442.992 253.567 440.425 256.134 437.271 256.134Z" fill="#E6E6E6"/>
<path d="M393.245 100.504H320.953C319.13 100.504 317.647 99.0214 317.647 97.1988C317.647 95.3763 319.13 93.894 320.953 93.894H393.245C395.067 93.894 396.549 95.3763 396.549 97.1988C396.549 99.0214 395.067 100.504 393.245 100.504Z" fill="#3F3D56"/>
<path d="M432.037 135.768H282.16C280.338 135.768 278.855 134.285 278.855 132.463C278.855 130.64 280.338 129.158 282.16 129.158H432.037C433.86 129.158 435.342 130.64 435.342 132.463C435.342 134.285 433.86 135.768 432.037 135.768Z" fill="#3F3D56"/>
<path d="M32.4956 453.76C32.4956 454.353 32.9724 454.83 33.5662 454.83H503.434C504.028 454.83 504.504 454.353 504.504 453.76C504.504 453.166 504.028 452.689 503.434 452.689H33.5662C32.9724 452.689 32.4956 453.166 32.4956 453.76Z" fill="#3F3D56"/>
<path d="M147.871 199.985C147.744 199.985 147.617 199.98 147.489 199.972C139.96 199.488 114.198 195.843 98.8184 169.252C97.5509 167.062 97.8007 164.278 99.4392 162.326L127.922 128.39C129.086 127.002 130.886 126.203 132.708 126.225C133.967 126.255 136.949 126.573 137.529 128.872C140.95 142.453 155.398 158.422 172.774 160.539C174.535 160.753 175.949 162.324 176.556 164.741C177.029 166.623 176.592 168.563 175.355 170.064L152.538 197.771C151.379 199.178 149.678 199.985 147.871 199.985ZM132.599 127.59C131.207 127.59 129.853 128.213 128.968 129.268L100.486 163.203C99.2148 164.718 99.0201 166.873 100 168.567C115.041 194.573 140.218 198.136 147.577 198.609C149.079 198.71 150.522 198.069 151.484 196.902L174.301 169.195C175.259 168.033 175.598 166.531 175.231 165.074C174.873 163.648 173.996 162.063 172.608 161.894C154.658 159.708 139.736 143.224 136.204 129.205C135.918 128.07 134.196 127.627 132.68 127.591C132.653 127.59 132.626 127.59 132.599 127.59Z" fill="#3F3D56"/>
<path d="M116.079 170.368L136.613 149.431C138.017 148 135.818 145.797 134.412 147.23L113.878 168.167C112.474 169.599 114.673 171.801 116.079 170.368Z" fill="#E6E6E6"/>
<path d="M128.473 176.267C134.14 171.187 139.065 165.306 143.097 158.852C144.162 157.149 141.47 155.585 140.41 157.281C136.511 163.521 131.75 169.156 126.272 174.066C124.777 175.406 126.984 177.601 128.473 176.267Z" fill="#E6E6E6"/>
<path d="M139.643 183.33C144.803 177.614 149.195 171.235 152.653 164.354C153.55 162.569 150.866 160.991 149.965 162.783C146.624 169.432 142.429 175.606 137.442 181.129C136.103 182.613 138.297 184.821 139.643 183.33Z" fill="#E6E6E6"/>
<path d="M130.845 145.637C142.279 145.637 151.548 136.563 151.548 125.37C151.548 114.177 142.279 105.103 130.845 105.103C119.411 105.103 110.142 114.177 110.142 125.37C110.142 136.563 119.411 145.637 130.845 145.637Z" fill="#123ADE"/>
<path d="M141.618 134.984C138.434 127.155 135.25 119.327 132.065 111.499C131.626 110.418 130.248 110.379 129.819 111.499C126.673 119.706 124.617 128.27 123.629 137.002C123.46 138.489 125.792 138.477 125.959 137.002C126.345 133.585 126.919 130.194 127.657 126.838C130.28 126.976 132.925 126.682 135.457 125.981C136.762 129.188 138.067 132.396 139.371 135.603C139.929 136.973 142.183 136.374 141.618 134.984ZM128.185 124.535C128.97 121.323 129.91 118.149 131.002 115.026L134.573 123.805C132.481 124.354 130.342 124.598 128.185 124.535Z" fill="white"/>
</g>
<defs>
<clipPath id="clip0_52_668">
<rect width="537" height="454.83" fill="white"/>
</clipPath>
</defs>
</svg>
