<svg width="402" height="11" viewBox="0 0 402 11" fill="none" xmlns="http://www.w3.org/2000/svg">
<path d="M401.26 9.60995C399.226 9.3987 397.356 9.30952 395.317 9.21224C393.277 9.11496 391.413 8.91182 389.379 8.70057C384.972 8.26186 380.739 7.71729 376.331 7.27858C368.026 6.42548 359.55 5.56428 351.228 5.05307C343.591 4.46033 335.779 3.97345 328.131 3.60863C326.092 3.51135 324.052 3.41407 322.183 3.32489C314.53 3.07404 306.882 2.70923 299.229 2.45838C281.368 1.94904 263.337 1.4316 245.465 1.15019C227.934 0.884992 210.402 0.619797 193.034 0.476673C184.521 0.413218 175.837 0.341656 167.323 0.278201C157.949 0.402141 148.585 0.298152 139.386 0.316233C120.133 0.425825 101.055 0.429562 81.8023 0.539154C65.1039 0.656388 48.559 1.12362 31.9979 1.93275C21.4067 2.56976 10.6401 3.31263 0.04353 4.0636C12.0827 5.20902 24.3081 6.02065 36.539 6.71832C44.5266 7.09934 52.5196 7.36641 60.3427 7.62536C65.4466 7.75461 70.5559 7.76988 75.8352 7.79327C79.0697 7.83334 82.1396 7.75134 85.2096 7.66933C93.5642 7.49675 102.083 7.44624 110.438 7.27366C120.152 7.16594 129.702 6.93614 139.416 6.82842C149.301 6.7288 159.355 6.63729 169.239 6.53767C178.098 6.50337 187.127 6.47718 196.156 6.45099C204.845 6.40859 213.699 6.48826 222.383 6.55982C231.236 6.63949 239.92 6.71105 248.773 6.79072C257.797 6.8785 266.64 7.1861 275.658 7.38784C291.995 7.71025 308.315 8.37455 324.806 9.04696C333.983 9.48474 343.001 9.68648 352.189 9.89632C361.207 10.0981 370.226 10.2998 379.079 10.3795C382.654 10.4358 386.398 10.5001 389.978 10.4425C391.683 10.4096 393.557 10.3848 395.268 10.2379C396.808 10.083 398.354 9.81402 399.889 9.77302C400.404 9.68338 400.75 9.58563 401.26 9.60995Z" fill="url(#paint0_linear_52_869)"/>
<defs>
<linearGradient id="paint0_linear_52_869" x1="3.79209e-05" y1="4.97534" x2="400.569" y2="24.0834" gradientUnits="userSpaceOnUse">
<stop stop-color="#123ADE"/>
<stop offset="1" stop-color="#7812DE"/>
</linearGradient>
</defs>
</svg>
